<svg width="40" height="41" viewBox="0 0 40 41" fill="none" xmlns="http://www.w3.org/2000/svg">
<g id="billing (1) 1">
<g id="Layer 2">
<path id="Vector" d="M9.5835 6.6302V20.7969C9.58204 21.0536 9.50115 21.3035 9.35194 21.5124C9.20273 21.7213 8.99252 21.8788 8.75017 21.9634C8.6176 22.0167 8.47634 22.045 8.3335 22.0469H3.3335C3.00273 22.0444 2.6862 21.912 2.45231 21.6781C2.21841 21.4442 2.08593 21.1276 2.0835 20.7969V6.6302C2.08221 5.67375 2.44803 4.75327 3.1055 4.05863C3.76297 3.36398 4.66195 2.94814 5.61703 2.89687C5.68831 2.88304 5.76094 2.87744 5.8335 2.8802C6.8276 2.8817 7.78056 3.27727 8.48349 3.9802C9.18643 4.68314 9.582 5.6361 9.5835 6.6302Z" fill="#1C5E3F"/>
<path id="Vector_2" d="M34.5837 12.4635V35.4302C34.5833 35.9348 34.4521 36.4306 34.2029 36.8694C33.9536 37.3081 33.5949 37.6746 33.1616 37.9332C32.7283 38.1918 32.2354 38.3337 31.731 38.3448C31.2265 38.356 30.7278 38.2361 30.2835 37.9969C30.0837 37.8969 29.917 37.7969 29.7505 37.6969C29.0975 37.2248 28.3055 36.9843 27.5003 37.0135C26.6826 36.9872 25.8793 37.2335 25.2168 37.7135C24.1561 38.3911 22.9232 38.7498 21.6645 38.7469C20.4059 38.7439 19.1746 38.3795 18.1172 37.6969C17.4491 37.2299 16.6484 36.9903 15.8337 37.0135C15.0241 36.9899 14.2288 37.2297 13.5672 37.6969C13.4004 37.7968 13.2336 37.8969 13.0505 37.997C12.6064 38.2381 12.1073 38.3596 11.6021 38.3493C11.0969 38.3391 10.6031 38.1975 10.1692 37.9385C9.73536 37.6795 9.37638 37.3121 9.12759 36.8723C8.8788 36.4325 8.74878 35.9355 8.75032 35.4302V6.21353C8.74969 5.36536 8.42492 4.5495 7.84247 3.93293C7.26003 3.31637 6.46395 2.94572 5.61719 2.89687C5.68847 2.88304 5.7611 2.87744 5.83365 2.8802H25.0003C27.541 2.88344 29.9767 3.89415 31.7732 5.69067C33.5697 7.48719 34.5804 9.92287 34.5837 12.4635Z" fill="#0DB561"/>
<path id="Vector_3" d="M27.5002 13.7135H15.8335C15.502 13.7135 15.184 13.5818 14.9496 13.3474C14.7152 13.113 14.5835 12.795 14.5835 12.4635C14.5835 12.132 14.7152 11.814 14.9496 11.5796C15.184 11.3452 15.502 11.2135 15.8335 11.2135H27.5002C27.8317 11.2135 28.1496 11.3452 28.384 11.5796C28.6185 11.814 28.7502 12.132 28.7502 12.4635C28.7502 12.795 28.6185 13.113 28.384 13.3474C28.1496 13.5818 27.8317 13.7135 27.5002 13.7135ZM22.5002 27.0468H15.8335C15.502 27.0468 15.184 26.9151 14.9496 26.6807C14.7152 26.4463 14.5835 26.1284 14.5835 25.7968C14.5835 25.4653 14.7152 25.1474 14.9496 24.913C15.184 24.6785 15.502 24.5468 15.8335 24.5468H22.5002C22.8317 24.5468 23.1496 24.6785 23.384 24.913C23.6185 25.1474 23.7502 25.4653 23.7502 25.7968C23.7502 26.1284 23.6185 26.4463 23.384 26.6807C23.1496 26.9151 22.8317 27.0468 22.5002 27.0468ZM27.5002 20.3802H15.8335C15.502 20.3802 15.184 20.2485 14.9496 20.0141C14.7152 19.7796 14.5835 19.4617 14.5835 19.1302C14.5835 18.7986 14.7152 18.4807 14.9496 18.2463C15.184 18.0119 15.502 17.8802 15.8335 17.8802H27.5002C27.8317 17.8802 28.1496 18.0119 28.384 18.2463C28.6185 18.4807 28.7502 18.7986 28.7502 19.1302C28.7502 19.4617 28.6185 19.7796 28.384 20.0141C28.1496 20.2485 27.8317 20.3802 27.5002 20.3802Z" fill="white"/>
</g>
</g>
</svg>
