<svg width="40" height="40" viewBox="0 0 40 40" fill="none" xmlns="http://www.w3.org/2000/svg">
<g id="calendar (1) 1">
<path id="Vector" d="M36.667 3.33325H3.33366C2.89163 3.33325 2.46771 3.50885 2.15515 3.82141C1.84259 4.13397 1.66699 4.55789 1.66699 4.99992V33.3333C1.66699 34.2173 2.01818 35.0652 2.6433 35.6903C3.26842 36.3154 4.11627 36.6666 5.00033 36.6666H30.0003L38.3337 28.3333V4.99992C38.3337 4.55789 38.1581 4.13397 37.8455 3.82141C37.5329 3.50885 37.109 3.33325 36.667 3.33325ZM11.667 9.16658C11.2379 9.14739 10.8327 8.96341 10.5358 8.65295C10.2389 8.34249 10.0732 7.92948 10.0732 7.49992C10.0732 7.07036 10.2389 6.65735 10.5358 6.34689C10.8327 6.03643 11.2379 5.85245 11.667 5.83325C12.0961 5.85245 12.5013 6.03643 12.7982 6.34689C13.0951 6.65735 13.2608 7.07036 13.2608 7.49992C13.2608 7.92948 13.0951 8.34249 12.7982 8.65295C12.5013 8.96341 12.0961 9.14739 11.667 9.16658ZM28.3337 9.16658C27.9045 9.14739 27.4993 8.96341 27.2025 8.65295C26.9056 8.34249 26.7399 7.92948 26.7399 7.49992C26.7399 7.07036 26.9056 6.65735 27.2025 6.34689C27.4993 6.03643 27.9045 5.85245 28.3337 5.83325C28.7628 5.85245 29.168 6.03643 29.4649 6.34689C29.7617 6.65735 29.9274 7.07036 29.9274 7.49992C29.9274 7.92948 29.7617 8.34249 29.4649 8.65295C29.168 8.96341 28.7628 9.14739 28.3337 9.16658Z" fill="#F2F2F2"/>
<path id="Vector_2" opacity="0.05" d="M5.00033 36.2501C4.11627 36.2501 3.26842 35.8989 2.6433 35.2738C2.01818 34.6486 1.66699 33.8008 1.66699 32.9167V33.3334C1.66699 34.2175 2.01818 35.0653 2.6433 35.6904C3.26842 36.3156 4.11627 36.6667 5.00033 36.6667H30.0003V36.2501H5.00033Z" fill="black"/>
<path id="Vector_3" d="M36.667 3.33325H3.33366C2.89163 3.33325 2.46771 3.50885 2.15515 3.82141C1.84259 4.13397 1.66699 4.55789 1.66699 4.99992V11.6666H38.3337V4.99992C38.3337 4.55789 38.1581 4.13397 37.8455 3.82141C37.5329 3.50885 37.109 3.33325 36.667 3.33325ZM11.667 9.16658C11.2379 9.14739 10.8327 8.96341 10.5358 8.65295C10.2389 8.34249 10.0732 7.92948 10.0732 7.49992C10.0732 7.07036 10.2389 6.65735 10.5358 6.34689C10.8327 6.03643 11.2379 5.85245 11.667 5.83325C12.0961 5.85245 12.5013 6.03643 12.7982 6.34689C13.0951 6.65735 13.2608 7.07036 13.2608 7.49992C13.2608 7.92948 13.0951 8.34249 12.7982 8.65295C12.5013 8.96341 12.0961 9.14739 11.667 9.16658ZM28.3337 9.16658C27.9045 9.14739 27.4993 8.96341 27.2025 8.65295C26.9056 8.34249 26.7399 7.92948 26.7399 7.49992C26.7399 7.07036 26.9056 6.65735 27.2025 6.34689C27.4993 6.03643 27.9045 5.85245 28.3337 5.83325C28.7628 5.85245 29.168 6.03643 29.4649 6.34689C29.7617 6.65735 29.9274 7.07036 29.9274 7.49992C29.9274 7.92948 29.7617 8.34249 29.4649 8.65295C29.168 8.96341 28.7628 9.14739 28.3337 9.16658Z" fill="#E83628"/>
<path id="Vector_4" opacity="0.1" d="M1.66699 11.25H38.3337V11.6667H1.66699V11.25Z" fill="black"/>
<path id="Vector_5" opacity="0.2" d="M36.667 3.33325H3.33366C2.89163 3.33325 2.46771 3.50885 2.15515 3.82141C1.84259 4.13397 1.66699 4.55789 1.66699 4.99992V5.41659C1.66699 4.97456 1.84259 4.55063 2.15515 4.23807C2.46771 3.92551 2.89163 3.74992 3.33366 3.74992H36.667C37.109 3.74992 37.5329 3.92551 37.8455 4.23807C38.1581 4.55063 38.3337 4.97456 38.3337 5.41659V4.99992C38.3337 4.55789 38.1581 4.13397 37.8455 3.82141C37.5329 3.50885 37.109 3.33325 36.667 3.33325Z" fill="white"/>
<path id="Vector_6" d="M38.3333 28.3334L30 36.6667V31.6667C30 30.7827 30.3512 29.9348 30.9763 29.3097C31.6014 28.6846 32.4493 28.3334 33.3333 28.3334H38.3333Z" fill="#E83628"/>
<path id="Vector_7" opacity="0.2" d="M33.3333 28.75H37.9167L38.3333 28.3334H33.3333C32.4493 28.3334 31.6014 28.6846 30.9763 29.3097C30.3512 29.9348 30 30.7827 30 31.6667V32.0834C30 31.1993 30.3512 30.3515 30.9763 29.7264C31.6014 29.1012 32.4493 28.75 33.3333 28.75Z" fill="white"/>
<path id="Vector_8" d="M16.6663 18.3333C14.828 18.3333 13.333 19.8283 13.333 21.6666H14.9997C14.9997 21.3369 15.0974 21.0147 15.2806 20.7406C15.4637 20.4666 15.724 20.2529 16.0285 20.1268C16.3331 20.0006 16.6682 19.9676 16.9915 20.0319C17.3148 20.0963 17.6118 20.255 17.8449 20.4881C18.0779 20.7212 18.2367 21.0181 18.301 21.3414C18.3653 21.6647 18.3323 21.9998 18.2061 22.3044C18.08 22.6089 17.8664 22.8692 17.5923 23.0524C17.3182 23.2355 16.996 23.3333 16.6663 23.3333H15.833V24.9999H16.6663C16.9964 24.9996 17.3192 25.0972 17.5938 25.2804C17.8685 25.4636 18.0825 25.7241 18.209 26.029C18.3355 26.334 18.3687 26.6695 18.3044 26.9933C18.24 27.3171 18.0811 27.6145 17.8477 27.8479C17.6143 28.0814 17.3169 28.2403 16.9931 28.3046C16.6693 28.3689 16.3337 28.3357 16.0288 28.2093C15.7239 28.0828 15.4633 27.8687 15.2801 27.5941C15.097 27.3195 14.9993 26.9967 14.9997 26.6666H13.333C13.333 28.5049 14.828 29.9999 16.6663 29.9999C18.5047 29.9999 19.9997 28.5049 19.9997 26.6666C19.9997 25.6716 19.5613 24.7783 18.868 24.1666C19.5613 23.5549 19.9997 22.6616 19.9997 21.6666C19.9997 19.8283 18.5047 18.3333 16.6663 18.3333ZM21.6663 18.3333V19.9999H23.333V29.9999H24.9997V18.3333H21.6663Z" fill="#333333"/>
<path id="Vector_9" d="M30.0003 36.6667L38.3337 28.3334V11.6667H1.66699L26.667 36.6667H30.0003Z" fill="url(#paint0_linear_136_2717)"/>
<path id="Vector_10" d="M36.667 3.33325H3.33366C2.89163 3.33325 2.46771 3.50885 2.15515 3.82141C1.84259 4.13397 1.66699 4.55789 1.66699 4.99992V33.3333C1.66699 34.2173 2.01818 35.0652 2.6433 35.6903C3.26842 36.3154 4.11627 36.6666 5.00033 36.6666H30.0003L38.3337 28.3333V4.99992C38.3337 4.55789 38.1581 4.13397 37.8455 3.82141C37.5329 3.50885 37.109 3.33325 36.667 3.33325ZM11.667 9.16658C11.2379 9.14739 10.8327 8.96341 10.5358 8.65295C10.2389 8.34249 10.0732 7.92948 10.0732 7.49992C10.0732 7.07036 10.2389 6.65735 10.5358 6.34689C10.8327 6.03643 11.2379 5.85245 11.667 5.83325C12.0961 5.85245 12.5013 6.03643 12.7982 6.34689C13.0951 6.65735 13.2608 7.07036 13.2608 7.49992C13.2608 7.92948 13.0951 8.34249 12.7982 8.65295C12.5013 8.96341 12.0961 9.14739 11.667 9.16658ZM28.3337 9.16658C27.9045 9.14739 27.4993 8.96341 27.2025 8.65295C26.9056 8.34249 26.7399 7.92948 26.7399 7.49992C26.7399 7.07036 26.9056 6.65735 27.2025 6.34689C27.4993 6.03643 27.9045 5.85245 28.3337 5.83325C28.7628 5.85245 29.168 6.03643 29.4649 6.34689C29.7617 6.65735 29.9274 7.07036 29.9274 7.49992C29.9274 7.92948 29.7617 8.34249 29.4649 8.65295C29.168 8.96341 28.7628 9.14739 28.3337 9.16658Z" fill="url(#paint1_linear_136_2717)"/>
</g>
<defs>
<linearGradient id="paint0_linear_136_2717" x1="12.242" y1="3.90841" x2="33.3537" y2="25.0201" gradientUnits="userSpaceOnUse">
<stop stop-opacity="0.1"/>
<stop offset="1" stop-opacity="0"/>
</linearGradient>
<linearGradient id="paint1_linear_136_2717" x1="-0.829674" y1="9.98492" x2="38.367" y2="28.2616" gradientUnits="userSpaceOnUse">
<stop stop-color="white" stop-opacity="0.2"/>
<stop offset="1" stop-color="white" stop-opacity="0"/>
</linearGradient>
</defs>
</svg>
