<svg width="188" height="62" viewBox="0 0 188 62" fill="none" xmlns="http://www.w3.org/2000/svg">
<path d="M32.1498 19.7918C32.7096 24.9249 32.9895 25.4849 35.6018 26.3249C39.6137 27.8181 39.5204 27.8181 42.226 22.4051C45.4915 15.5921 51.7424 11.4856 58.7398 11.4856C62.2851 11.4856 62.1918 13.0722 58.5532 13.8188C50.6229 15.5921 42.7858 28.8447 48.6636 30.7113C51.929 31.7379 74.7871 42.844 76.8397 44.5239C77.866 45.2706 73.8541 43.964 67.9763 41.4441C55.7543 36.311 47.544 33.5112 46.8909 34.1645C46.611 34.3511 46.7043 35.6577 46.9842 36.9643C48.0105 40.8841 53.1419 45.9239 58.0867 47.7904C62.3784 49.377 62.4717 49.4703 60.1393 50.1236C56.5007 51.0569 50.7162 49.1904 46.8909 45.8305C43.0657 42.4707 41.3863 39.3909 40.4533 34.5378C40.0802 32.6712 39.4271 31.0846 39.0539 31.0846C38.6807 31.0846 37.0946 30.8046 35.6018 30.5246L32.8029 29.9647L32.2431 38.7376C31.7766 47.5104 31.0302 50.6836 29.724 50.6836C28.6978 50.6836 27.8581 45.9239 27.205 36.871C26.9251 32.5779 26.1787 28.8447 25.6189 28.6581C25.0591 28.4714 20.2076 28.0048 14.7963 27.5381C5.18659 26.8848 5 26.8848 5 24.5516C5 22.5917 5.46649 22.2184 8.26544 21.9384C10.0381 21.7518 14.7963 22.1251 18.9014 22.685C27.3916 23.8983 27.2983 23.8983 28.138 16.992C29.2576 8.03245 30.9369 9.24572 32.1498 19.7918Z" fill="#6956E5"/>
<path d="M82.1378 37.8418V24.7509H84.9055V30.1522H90.5241V24.7509H93.2855V37.8418H90.5241V32.4341H84.9055V37.8418H82.1378ZM99.9908 38.0336C98.9808 38.0336 98.1115 37.829 97.3828 37.4199C96.6584 37.0066 96.1001 36.4228 95.7081 35.6685C95.3161 34.91 95.12 34.013 95.12 32.9774C95.12 31.9675 95.3161 31.0811 95.7081 30.3184C96.1001 29.5556 96.652 28.9611 97.3636 28.535C98.0795 28.1088 98.919 27.8958 99.8821 27.8958C100.53 27.8958 101.133 28.0002 101.691 28.209C102.254 28.4135 102.744 28.7225 103.161 29.1358C103.583 29.5492 103.911 30.0691 104.146 30.6955C104.38 31.3176 104.497 32.0463 104.497 32.8816V33.6294H96.2067V31.9419H101.934C101.934 31.5499 101.849 31.2026 101.678 30.9C101.508 30.5975 101.271 30.361 100.969 30.1905C100.67 30.0158 100.323 29.9284 99.9268 29.9284C99.5135 29.9284 99.147 30.0243 98.8274 30.2161C98.5121 30.4036 98.2649 30.6571 98.0859 30.9767C97.907 31.2921 97.8153 31.6436 97.8111 32.0314V33.6358C97.8111 34.1216 97.9006 34.5414 98.0795 34.8951C98.2628 35.2488 98.5206 35.5215 98.853 35.7132C99.1854 35.905 99.5795 36.0009 100.036 36.0009C100.338 36.0009 100.615 35.9583 100.866 35.873C101.118 35.7878 101.333 35.66 101.512 35.4895C101.691 35.3191 101.827 35.1103 101.921 34.8631L104.44 35.0293C104.312 35.6344 104.05 36.1628 103.653 36.6145C103.261 37.062 102.754 37.4114 102.132 37.6628C101.514 37.91 100.8 38.0336 99.9908 38.0336ZM110.71 38.0336C109.705 38.0336 108.839 37.8205 108.115 37.3944C107.395 36.964 106.841 36.3674 106.453 35.6046C106.07 34.8418 105.878 33.964 105.878 32.9711C105.878 31.9654 106.072 31.0833 106.46 30.3248C106.852 29.562 107.408 28.9675 108.128 28.5414C108.848 28.111 109.705 27.8958 110.697 27.8958C111.554 27.8958 112.304 28.0513 112.947 28.3624C113.591 28.6735 114.1 29.1103 114.475 29.6728C114.85 30.2353 115.057 30.8958 115.095 31.6543H112.526C112.453 31.1642 112.261 30.7701 111.95 30.4718C111.643 30.1692 111.241 30.0179 110.742 30.0179C110.32 30.0179 109.952 30.133 109.636 30.3631C109.325 30.589 109.082 30.9192 108.908 31.3539C108.733 31.7885 108.646 32.3148 108.646 32.9327C108.646 33.5591 108.731 34.0918 108.901 34.5307C109.076 34.9696 109.321 35.3042 109.636 35.5343C109.952 35.7644 110.32 35.8794 110.742 35.8794C111.053 35.8794 111.332 35.8155 111.58 35.6877C111.831 35.5598 112.038 35.3745 112.2 35.1316C112.366 34.8844 112.474 34.5882 112.526 34.2431H115.095C115.053 34.9931 114.848 35.6536 114.482 36.2246C114.119 36.7914 113.619 37.2346 112.979 37.5542C112.34 37.8738 111.584 38.0336 110.71 38.0336ZM119.306 35.0165L119.312 31.7502H119.709L122.854 28.0236H125.979L121.754 32.9583H121.108L119.306 35.0165ZM116.839 37.8418V24.7509H119.562V37.8418H116.839ZM122.975 37.8418L120.086 33.5655L121.901 31.6415L126.165 37.8418H122.975ZM131.385 38.0336C130.375 38.0336 129.506 37.829 128.777 37.4199C128.053 37.0066 127.495 36.4228 127.103 35.6685C126.711 34.91 126.515 34.013 126.515 32.9774C126.515 31.9675 126.711 31.0811 127.103 30.3184C127.495 29.5556 128.047 28.9611 128.758 28.535C129.474 28.1088 130.314 27.8958 131.277 27.8958C131.924 27.8958 132.527 28.0002 133.086 28.209C133.648 28.4135 134.138 28.7225 134.556 29.1358C134.978 29.5492 135.306 30.0691 135.54 30.6955C135.775 31.3176 135.892 32.0463 135.892 32.8816V33.6294H127.601V31.9419H133.328C133.328 31.5499 133.243 31.2026 133.073 30.9C132.902 30.5975 132.666 30.361 132.363 30.1905C132.065 30.0158 131.718 29.9284 131.321 29.9284C130.908 29.9284 130.542 30.0243 130.222 30.2161C129.907 30.4036 129.659 30.6571 129.48 30.9767C129.301 31.2921 129.21 31.6436 129.206 32.0314V33.6358C129.206 34.1216 129.295 34.5414 129.474 34.8951C129.657 35.2488 129.915 35.5215 130.248 35.7132C130.58 35.905 130.974 36.0009 131.43 36.0009C131.733 36.0009 132.01 35.9583 132.261 35.873C132.512 35.7878 132.728 35.66 132.907 35.4895C133.086 35.3191 133.222 35.1103 133.316 34.8631L135.834 35.0293C135.706 35.6344 135.444 36.1628 135.048 36.6145C134.656 37.062 134.149 37.4114 133.527 37.6628C132.909 37.91 132.195 38.0336 131.385 38.0336ZM137.669 37.8418V28.0236H140.309V29.7367H140.411C140.59 29.1273 140.89 28.6671 141.312 28.356C141.734 28.0407 142.22 27.883 142.77 27.883C142.906 27.883 143.053 27.8915 143.211 27.9086C143.368 27.9256 143.507 27.949 143.626 27.9789V30.3951C143.498 30.3567 143.321 30.3226 143.096 30.2928C142.87 30.263 142.663 30.248 142.475 30.248C142.075 30.248 141.717 30.3354 141.402 30.5101C141.091 30.6806 140.843 30.9192 140.66 31.226C140.481 31.5328 140.392 31.8865 140.392 32.2871V37.8418H137.669ZM149.013 38.0336C148.007 38.0336 147.142 37.8205 146.418 37.3944C145.698 36.964 145.144 36.3674 144.756 35.6046C144.372 34.8418 144.181 33.964 144.181 32.9711C144.181 31.9654 144.374 31.0833 144.762 30.3248C145.154 29.562 145.71 28.9675 146.431 28.5414C147.151 28.111 148.007 27.8958 149 27.8958C149.857 27.8958 150.607 28.0513 151.25 28.3624C151.894 28.6735 152.403 29.1103 152.778 29.6728C153.153 30.2353 153.36 30.8958 153.398 31.6543H150.828C150.756 31.1642 150.564 30.7701 150.253 30.4718C149.946 30.1692 149.544 30.0179 149.045 30.0179C148.623 30.0179 148.254 30.133 147.939 30.3631C147.628 30.589 147.385 30.9192 147.21 31.3539C147.036 31.7885 146.948 32.3148 146.948 32.9327C146.948 33.5591 147.034 34.0918 147.204 34.5307C147.379 34.9696 147.624 35.3042 147.939 35.5343C148.254 35.7644 148.623 35.8794 149.045 35.8794C149.356 35.8794 149.635 35.8155 149.882 35.6877C150.134 35.5598 150.34 35.3745 150.502 35.1316C150.669 34.8844 150.777 34.5882 150.828 34.2431H153.398C153.355 34.9931 153.151 35.6536 152.784 36.2246C152.422 36.7914 151.921 37.2346 151.282 37.5542C150.643 37.8738 149.887 38.0336 149.013 38.0336ZM157.941 38.0272C157.315 38.0272 156.756 37.9185 156.266 37.7012C155.776 37.4796 155.388 37.1536 155.103 36.7232C154.822 36.2885 154.681 35.7473 154.681 35.0996C154.681 34.5542 154.781 34.0961 154.982 33.7253C155.182 33.3546 155.455 33.0563 155.8 32.8304C156.145 32.6046 156.537 32.4341 156.976 32.3191C157.419 32.204 157.884 32.123 158.369 32.0762C158.94 32.0165 159.401 31.9611 159.75 31.91C160.099 31.8546 160.353 31.7736 160.511 31.6671C160.668 31.5605 160.747 31.4029 160.747 31.1941V31.1557C160.747 30.7509 160.619 30.4377 160.364 30.2161C160.112 29.9945 159.754 29.8837 159.29 29.8837C158.8 29.8837 158.41 29.9924 158.12 30.2097C157.83 30.4228 157.638 30.6912 157.545 31.0151L155.026 30.8105C155.154 30.214 155.406 29.6983 155.781 29.2637C156.156 28.8248 156.639 28.4881 157.232 28.2537C157.828 28.0151 158.518 27.8958 159.303 27.8958C159.848 27.8958 160.37 27.9597 160.869 28.0875C161.371 28.2154 161.817 28.4135 162.205 28.682C162.597 28.9505 162.906 29.2956 163.131 29.7175C163.357 30.1351 163.47 30.6358 163.47 31.2196V37.8418H160.888V36.4803H160.811C160.653 36.7871 160.442 37.0577 160.178 37.2921C159.914 37.5222 159.597 37.7033 159.226 37.8354C158.855 37.9632 158.427 38.0272 157.941 38.0272ZM158.721 36.1479C159.121 36.1479 159.475 36.0691 159.782 35.9114C160.089 35.7495 160.33 35.5321 160.504 35.2594C160.679 34.9867 160.766 34.6777 160.766 34.3326V33.2907C160.681 33.3461 160.564 33.3972 160.415 33.4441C160.27 33.4867 160.106 33.5272 159.923 33.5655C159.739 33.5996 159.556 33.6316 159.373 33.6614C159.19 33.687 159.023 33.7104 158.874 33.7317C158.555 33.7786 158.276 33.8532 158.037 33.9554C157.798 34.0577 157.613 34.1962 157.481 34.3709C157.349 34.5414 157.283 34.7544 157.283 35.0101C157.283 35.3809 157.417 35.6642 157.685 35.8603C157.958 36.052 158.303 36.1479 158.721 36.1479ZM165.583 37.8418V28.0236H168.223V29.7367H168.325C168.504 29.1273 168.804 28.6671 169.226 28.356C169.648 28.0407 170.134 27.883 170.684 27.883C170.82 27.883 170.967 27.8915 171.125 27.9086C171.282 27.9256 171.421 27.949 171.54 27.9789V30.3951C171.412 30.3567 171.235 30.3226 171.01 30.2928C170.784 30.263 170.577 30.248 170.39 30.248C169.989 30.248 169.631 30.3354 169.316 30.5101C169.005 30.6806 168.757 30.9192 168.574 31.226C168.395 31.5328 168.306 31.8865 168.306 32.2871V37.8418H165.583ZM176.965 38.0336C175.955 38.0336 175.086 37.829 174.357 37.4199C173.633 37.0066 173.075 36.4228 172.683 35.6685C172.291 34.91 172.095 34.013 172.095 32.9774C172.095 31.9675 172.291 31.0811 172.683 30.3184C173.075 29.5556 173.627 28.9611 174.338 28.535C175.054 28.1088 175.894 27.8958 176.857 27.8958C177.504 27.8958 178.107 28.0002 178.666 28.209C179.228 28.4135 179.718 28.7225 180.136 29.1358C180.558 29.5492 180.886 30.0691 181.12 30.6955C181.355 31.3176 181.472 32.0463 181.472 32.8816V33.6294H173.181V31.9419H178.909C178.909 31.5499 178.823 31.2026 178.653 30.9C178.482 30.5975 178.246 30.361 177.943 30.1905C177.645 30.0158 177.298 29.9284 176.901 29.9284C176.488 29.9284 176.122 30.0243 175.802 30.2161C175.487 30.4036 175.24 30.6571 175.061 30.9767C174.882 31.2921 174.79 31.6436 174.786 32.0314V33.6358C174.786 34.1216 174.875 34.5414 175.054 34.8951C175.237 35.2488 175.495 35.5215 175.828 35.7132C176.16 35.905 176.554 36.0009 177.01 36.0009C177.313 36.0009 177.59 35.9583 177.841 35.873C178.093 35.7878 178.308 35.66 178.487 35.4895C178.666 35.3191 178.802 35.1103 178.896 34.8631L181.414 35.0293C181.286 35.6344 181.024 36.1628 180.628 36.6145C180.236 37.062 179.729 37.4114 179.107 37.6628C178.489 37.91 177.775 38.0336 176.965 38.0336Z" fill="#6956E5"/>
</svg>
