<svg width="41" height="41" viewBox="0 0 41 41" fill="none" xmlns="http://www.w3.org/2000/svg">
<g id="health-insurance 1">
<path id="Vector" d="M34.5788 6.79376L20.8288 3.04376C20.6135 2.98509 20.3865 2.98509 20.1713 3.04376L6.42125 6.79376C6.15662 6.8659 5.92307 7.02307 5.75659 7.24106C5.59011 7.45904 5.49994 7.72573 5.5 8.00001V18.3125C5.5 26.875 10.2013 34.33 17.1963 36.875C18.2322 37.4197 19.3469 37.7993 20.5 38C21.6526 37.7989 22.7668 37.4194 23.8025 36.875C30.8025 34.3313 35.5 26.875 35.5 18.3125V8.00001C35.5001 7.72573 35.4099 7.45904 35.2434 7.24106C35.0769 7.02307 34.8434 6.8659 34.5788 6.79376Z" fill="#6956E5"/>
<path id="Vector_2" d="M20.8288 3.04376L34.5788 6.79376C34.8434 6.8659 35.0769 7.02307 35.2434 7.24106C35.4099 7.45903 35.5001 7.72573 35.5 8.00001L20.5 4.5L5.5 8.00001C5.49994 7.72573 5.59011 7.45904 5.75659 7.24106C5.92307 7.02307 6.15662 6.8659 6.42125 6.79376L20.1713 3.04376C20.3865 2.98509 20.6135 2.98509 20.8288 3.04376Z" fill="white" fill-opacity="0.3"/>
<path id="Vector_3" d="M17.1963 36.875C10.2013 34.33 5.5 26.875 5.5 18.3125C5.5 18.3125 7.5896 33.0964 17.5 35.6321C18.4296 35.8699 20.5 36.5 20.5 36.5C20.5 36.5 22.5704 35.8699 23.5 35.6321C33.4104 33.0964 35.5 18.3125 35.5 18.3125C35.5 26.875 30.8025 34.3312 23.8025 36.875C22.7668 37.4194 21.6526 37.7989 20.5 38C19.3469 37.7993 18.2322 37.4197 17.1963 36.875Z" fill="black" fill-opacity="0.2"/>
<path id="Vector_4" d="M26.75 15.25H24.25V12.75C24.25 12.4185 24.1183 12.1005 23.8839 11.8661C23.6495 11.6317 23.3315 11.5 23 11.5H18C17.6685 11.5 17.3505 11.6317 17.1161 11.8661C16.8817 12.1005 16.75 12.4185 16.75 12.75V15.25H14.25C13.9185 15.25 13.6005 15.3817 13.3661 15.6161C13.1317 15.8505 13 16.1685 13 16.5V21.5C13 21.8315 13.1317 22.1495 13.3661 22.3839C13.6005 22.6183 13.9185 22.75 14.25 22.75H16.75V25.25C16.75 25.5815 16.8817 25.8995 17.1161 26.1339C17.3505 26.3683 17.6685 26.5 18 26.5H23C23.3315 26.5 23.6495 26.3683 23.8839 26.1339C24.1183 25.8995 24.25 25.5815 24.25 25.25V22.75H26.75C27.0815 22.75 27.3995 22.6183 27.6339 22.3839C27.8683 22.1495 28 21.8315 28 21.5V16.5C28 16.1685 27.8683 15.8505 27.6339 15.6161C27.3995 15.3817 27.0815 15.25 26.75 15.25Z" fill="#FFFFFE"/>
</g>
</svg>
