<svg width="27" height="16" viewBox="0 0 27 16" fill="none" xmlns="http://www.w3.org/2000/svg">
<path d="M10.3041 4.00979C10.5062 5.8634 10.6073 6.06562 11.5507 6.36893C12.9994 6.90817 12.9657 6.90817 13.9427 4.95345C15.1219 2.49321 17.3792 1.01032 19.906 1.01032C21.1863 1.01032 21.1526 1.58325 19.8387 1.85287C16.9749 2.49321 14.1449 7.27889 16.2674 7.95293C17.4466 8.32365 25.7009 12.3342 26.4421 12.9408C26.8127 13.2104 25.364 12.7386 23.2415 11.8287C18.8279 9.97505 15.8631 8.96399 15.6273 9.1999C15.5262 9.26731 15.5599 9.73913 15.661 10.211C16.0316 11.6264 17.8846 13.4464 19.6702 14.1204C21.22 14.6933 21.2537 14.727 20.4114 14.9629C19.0975 15.3 17.0086 14.6259 15.6273 13.4127C14.2459 12.1994 13.6395 11.0872 13.3026 9.33471C13.1678 8.66067 12.932 8.08774 12.7972 8.08774C12.6625 8.08774 12.0897 7.98663 11.5507 7.88552L10.5399 7.68331L10.3378 10.8513C10.1693 14.0193 9.8998 15.1652 9.42813 15.1652C9.05752 15.1652 8.75431 13.4464 8.51847 10.1773C8.4174 8.62697 8.14787 7.27889 7.94572 7.21149C7.74358 7.14408 5.99164 6.97557 4.03756 6.80706C0.567381 6.57115 0.5 6.57115 0.5 5.7286C0.5 5.02086 0.668456 4.88605 1.67919 4.78494C2.31932 4.71754 4.03756 4.85235 5.51997 5.05456C8.58585 5.49268 8.55216 5.49268 8.85538 2.99874C9.25967 -0.236655 9.86611 0.20147 10.3041 4.00979Z" fill="white"/>
</svg>
