<svg width="41" height="41" viewBox="0 0 41 41" fill="none" xmlns="http://www.w3.org/2000/svg">
<g id="manager 1" clip-path="url(#clip0_134_1188)">
<path id="Vector" d="M37.8516 33.4766C37.5469 32.5312 36.8984 31.7344 36.0312 31.25C33.1953 29.6641 27.4219 27.7656 27.4219 27.7656C25.6406 27.1094 25.25 21.4844 25.25 21.4844H15.75C15.75 21.4844 15.3594 27.1094 13.5781 27.7656C13.5781 27.7656 7.80469 29.6641 4.96875 31.25C4.10156 31.7344 3.45313 32.5391 3.14844 33.4766C2.66406 34.9531 1.875 37.625 1.57031 40.0312H39.4297C39.125 37.625 38.3359 34.9531 37.8516 33.4766Z" fill="#C68B55"/>
<path id="Vector_2" d="M27.2266 30.5234C27.1953 30.6641 27.1641 30.8047 27.1328 30.9531C27.125 31 27.1172 31.0547 27.1094 31.1016C27.0938 31.3828 27.0625 31.6719 27.0469 31.9531C27.0078 32.5469 26.9844 33.1406 26.9531 33.7344C26.9219 34.375 26.8984 35.0156 26.8516 35.6563C26.8359 35.8672 26.8203 36.0703 26.7891 36.2734C26.7891 36.2969 26.7812 36.3203 26.7812 36.3438V36.3281C26.7812 36.3359 26.7812 36.3438 26.7734 36.3516C26.7656 36.3828 26.7656 36.4141 26.7656 36.4297C26.7578 36.4844 26.7578 36.5391 26.75 36.5859C26.7266 36.8516 26.7109 37.1172 26.6953 37.3828C26.6719 37.9609 26.6641 38.5469 26.6719 39.125C26.6797 39.4297 26.6875 39.7266 26.6719 40.0234H39.4219C39.1172 37.6172 38.3281 34.9453 37.8438 33.4688C37.5391 32.5234 36.8906 31.7266 36.0234 31.2422C33.5156 29.8359 28.6875 28.1875 27.625 27.8281C27.6328 28.7422 27.4297 29.625 27.2266 30.5234ZM12.75 29.25C12.4531 28.9531 12.3125 28.5781 12.3047 28.1953C10.4375 28.8438 6.96875 30.125 4.96875 31.2422C4.10156 31.7266 3.45313 32.5313 3.14844 33.4688C2.66406 34.9531 1.875 37.625 1.57031 40.0313H14.7578V33.7734C14.5 32.6719 14.2031 31.5781 13.9688 30.4688L12.75 29.25Z" fill="#00502F"/>
<path id="Vector_3" d="M20.5156 29.3672L24.6016 28.1953H27.4219L27.9297 33.7188L26.6797 40.0312H14.7578L12.7422 28.4453L14.5937 27.4062L20.5156 29.3672Z" fill="#CFCFD1"/>
<path id="Vector_4" d="M21.4063 31.1328L20.4609 30.6094H20.4531L19.5078 31.1328L18.1094 40.0312H22.8125L21.4063 31.1328Z" fill="#00A05E"/>
<path id="Vector_5" d="M20.4688 29.4062H20.4375C19.6094 29.4219 18.9453 30.0469 18.9453 30.8125C19.0312 31.4766 19.4297 31.5469 19.4297 31.5469C19.4297 31.5469 20.0156 31.2344 20.4531 31.2188C20.8906 31.2266 21.4766 31.5469 21.4766 31.5469C21.4766 31.5469 21.8672 31.4766 21.9609 30.8125C21.9609 30.0469 21.2969 29.4219 20.4688 29.4062Z" fill="#00A05E"/>
<path id="Vector_6" d="M25.6016 30.3516C25.6016 30.3516 26.8828 28.7344 27.0938 27.5703C26.5547 27.1406 26.1641 26.2344 25.8828 25.2422C25.8828 25.2422 21.4219 27.6328 20.5156 29.375L24.1406 34.4375C24.1406 34.4297 23.7578 32.2266 25.6016 30.3516ZM15.4219 30.3516C15.4219 30.3516 14.1406 28.7109 13.9297 27.5469C14.4688 27.0938 14.8359 26.2188 15.1172 25.2266L15.1406 25.2422C15.1406 25.2422 19.6016 27.6328 20.5078 29.375L16.8828 34.4375C16.8828 34.4297 17.2656 32.2266 15.4219 30.3516Z" fill="white"/>
<path id="Vector_7" d="M27.9375 40.0312L31.5391 34.2266L30.2266 31.9687L31.0391 31.3437C31.0391 31.3437 30.8281 30.0156 30.3047 28.8203C28.8984 28.3125 27.875 27.9766 27.875 27.9766C27.7891 27.9453 27.7109 27.9062 27.6328 27.8516C27.625 28.7578 27.4219 29.6328 27.2188 30.5312C27.1875 30.6719 27.1562 30.8125 27.125 30.9609C27.1172 31.0078 27.1094 31.0625 27.1016 31.1094C27.0859 31.3906 27.0547 31.6797 27.0391 31.9609C27 32.5547 26.9766 33.1484 26.9453 33.7422C26.9141 34.3828 26.8906 35.0234 26.8438 35.6641C26.8281 35.875 26.8125 36.0781 26.7812 36.2812C26.7812 36.3047 26.7734 36.3281 26.7734 36.3516V36.3359C26.7734 36.3438 26.7734 36.3516 26.7656 36.3594C26.7578 36.3906 26.7578 36.4219 26.7578 36.4375C26.75 36.4922 26.75 36.5469 26.7422 36.5938C26.7187 36.8594 26.7031 37.125 26.6875 37.3906C26.6641 37.9688 26.6562 38.5547 26.6641 39.1328C26.6719 39.4375 26.6797 39.7344 26.6641 40.0312H27.9375Z" fill="#303030"/>
<path id="Vector_8" d="M24.7656 40.0312H27.3516L31.0859 34.0156L29.7734 31.7578L30.5859 31.1328C30.5859 31.1328 30.375 29.8047 29.8516 28.6094C28.4453 28.1016 27.4219 27.7656 27.4219 27.7656C27.2422 27.6953 27.0703 27.5781 26.9141 27.4141L24.7656 40.0312Z" fill="#00A05E"/>
<path id="Vector_9" d="M14.7578 33.9219L14.6719 33.3984C14.4375 32.4219 14.1797 31.4531 13.9766 30.4688L12.75 29.25C12.4688 28.9688 12.3281 28.6172 12.3125 28.2578C11.8984 28.3984 11.3594 28.5938 10.75 28.8125C10.2344 30.0078 10.0156 31.3359 10.0156 31.3359L10.8281 31.9609L9.51562 34.2188L13.125 40.0313H14.7656V33.9219H14.7578Z" fill="#303030"/>
<path id="Vector_10" d="M16.2187 40.0312H13.6328L9.89844 34.0156L11.2109 31.7578L10.3984 31.1328C10.3984 31.1328 10.6094 29.8047 11.1328 28.6094C12.5391 28.1016 13.5625 27.7656 13.5625 27.7656C13.7422 27.6953 13.9219 27.5859 14.0781 27.4219L16.2187 40.0312Z" fill="#00A05E"/>
<path id="Vector_11" d="M27.3906 10.1016C27.2344 9.73441 27.125 9.34379 27.0859 8.93754C26.6953 4.90629 24.2734 5.56254 24.2734 5.56254C22.2344 6.1016 21.0078 5.92191 21.0078 5.92191H19.9844C19.9844 5.92191 18.7578 6.1016 16.7188 5.56254C16.7188 5.56254 14.2969 4.90629 13.9063 8.93754C13.8672 9.33598 13.7656 9.7266 13.6016 10.1016C13.1875 11.0469 12.4375 13.0079 12.4375 14.5782C12.4375 14.5782 12.6406 20.3438 15.2969 23.0547C15.2969 23.0547 17.5391 26.4766 20.1953 26.4766H20.8047C23.4609 26.4766 25.7031 23.0547 25.7031 23.0547C28.3594 20.3516 28.5625 14.5782 28.5625 14.5782C28.5625 13 27.8047 11.0469 27.3906 10.1016Z" fill="#D69A5F"/>
<path id="Vector_12" d="M28.4298 13.5938C28.7735 12.9922 29.3204 12.5079 29.9298 12.4063C30.2501 12.3516 30.5469 12.4532 30.6719 12.8126C30.8516 13.3438 30.8438 13.961 30.7423 14.5079C30.6251 15.1329 30.3204 15.6172 30.0391 16.1563C29.7969 16.6329 29.4532 17.0704 29.3594 17.6251C29.336 17.7501 29.3282 17.8594 29.2735 17.9766C29.1251 18.3282 28.8985 18.5469 28.5548 18.5938C28.4376 18.6094 28.3204 18.6016 28.2188 18.5469C28.0782 18.4688 27.9844 18.3126 27.9298 18.1485C27.8048 17.7735 27.8282 17.3594 27.8516 16.961C27.8673 16.6485 27.8907 16.3438 27.9063 16.0313C27.9454 15.4297 27.9766 14.8204 28.1485 14.2422C28.211 14.0235 28.3048 13.8047 28.4298 13.5938Z" fill="#D69A5F"/>
<path id="Vector_13" d="M30.6641 12.8203C30.5625 12.5234 30.3437 12.3984 30.0937 12.3984C30.3125 12.4219 30.5 12.5469 30.5938 12.8203C30.7734 13.3516 30.7656 13.9687 30.6641 14.5156C30.5469 15.1406 30.2422 15.625 29.9609 16.1641C29.7187 16.6406 29.375 17.0781 29.2812 17.6328C29.2578 17.7578 29.25 17.8672 29.1953 17.9844C29.0469 18.3359 28.8203 18.5547 28.4766 18.6016C28.4375 18.6094 28.4062 18.6094 28.3672 18.6094C28.4219 18.6172 28.4844 18.6172 28.5391 18.6094C28.8828 18.5625 29.1094 18.3437 29.2578 17.9922C29.3047 17.875 29.3203 17.7734 29.3438 17.6406C29.4375 17.0859 29.7812 16.6484 30.0234 16.1719C30.2969 15.625 30.6094 15.1484 30.7266 14.5234C30.8359 13.9609 30.8437 13.3437 30.6641 12.8203Z" fill="#A87143"/>
<path id="Vector_14" d="M30.6639 12.8203C30.6248 12.7109 30.578 12.6328 30.5155 12.5703C30.2577 12.5234 29.992 12.5703 29.7577 12.7109C29.5858 12.8203 29.4373 12.9766 29.328 13.1719C29.2967 13.2266 29.1639 13.4453 29.1952 13.5078C29.2342 13.6094 29.2967 13.5469 29.3827 13.5703C29.7811 13.6797 30.0936 13.8984 30.2264 14.3672C30.367 14.8594 30.2811 15.4062 30.1327 15.9062C30.1483 15.9062 30.1561 15.8984 30.1717 15.8984C30.4061 15.4609 30.6327 15.0391 30.7264 14.5234C30.8358 13.9609 30.8436 13.3437 30.6639 12.8203Z" fill="#BF8551"/>
<path id="Vector_15" d="M30.7344 14.5156C30.8359 13.9609 30.8438 13.3437 30.6641 12.8203C30.5391 12.4531 30.2422 12.3516 29.9219 12.4141C29.3203 12.5156 28.7734 13.0078 28.4219 13.6016C28.3047 13.8047 28.2031 14.0312 28.1406 14.25C28.0781 14.4609 28.0312 14.6719 28 14.8906C28.0391 14.8203 28.0703 14.7422 28.0938 14.7031C28.3984 14.1797 28.9141 13.6484 29.4687 13.5156C29.8672 13.4219 30.2656 13.6172 30.4453 14.0312C30.6172 14.4141 30.5234 14.8437 30.4844 15.2656C30.5937 15.0312 30.6875 14.7891 30.7344 14.5156Z" fill="#DDAC7A"/>
<path id="Vector_16" d="M28.9063 14.7266C28.7734 14.6016 28.5703 14.625 28.4297 14.7344C28.2344 14.875 28.0859 15.0547 27.9609 15.2656C27.9375 15.5235 27.9219 15.7813 27.9062 16.0313C27.8906 16.3438 27.8672 16.6485 27.8516 16.961C27.8516 17 27.8438 17.0391 27.8438 17.0781C27.9219 17.0938 28.0078 17.0625 28.0781 17.0078C28.1641 16.9375 28.2266 16.836 28.2969 16.7422C28.4375 16.5781 28.6172 16.461 28.7812 16.3203C28.9453 16.1875 29.1016 16.0156 29.1562 15.7891C29.2187 15.5391 29.1406 15.2813 29.0703 15.0391C29.0313 14.9297 28.9922 14.8047 28.9063 14.7266Z" fill="#BF8551"/>
<path id="Vector_17" d="M29.0625 15.0469C29.0234 14.9297 28.9844 14.8047 28.9063 14.7266C28.7734 14.6016 28.5703 14.625 28.4297 14.7344C28.2344 14.875 28.0859 15.0547 27.9609 15.2656C27.9531 15.3203 27.9531 15.3828 27.9453 15.4375C28.0547 15.2656 28.1953 15.1172 28.3516 15C28.5 14.8985 28.7031 14.875 28.8281 14.9922C28.9141 15.0703 28.9531 15.1953 28.9844 15.3125C29.0469 15.5156 29.1094 15.7344 29.0938 15.9453C29.1172 15.8985 29.1328 15.8516 29.1484 15.7969C29.2109 15.5469 29.1406 15.2891 29.0625 15.0469Z" fill="#A87143"/>
<path id="Vector_18" d="M21.156 13.0001C21.156 13.0001 21.2498 12.9766 21.4217 12.9219C21.5935 12.8751 21.8357 12.8126 22.1248 12.7344C22.4138 12.6641 22.7576 12.5782 23.1248 12.4844C23.3045 12.4376 23.4998 12.3985 23.6873 12.3594C23.8826 12.3204 24.0779 12.2735 24.281 12.2422C24.4842 12.2032 24.6795 12.1719 24.8982 12.1485C24.9529 12.1485 25.0154 12.1407 25.0701 12.1485C25.1248 12.1485 25.1717 12.1563 25.2263 12.1641C25.3279 12.1719 25.4217 12.1876 25.5154 12.2032C25.7029 12.2344 25.8904 12.2735 26.0545 12.3126C26.2263 12.3516 26.3826 12.4063 26.531 12.4532C26.6717 12.5001 26.8045 12.5547 26.9217 12.6016C27.0388 12.6485 27.1326 12.6954 27.2107 12.7344C27.2888 12.7735 27.3513 12.8047 27.3904 12.8282C27.4295 12.8516 27.4529 12.8594 27.4529 12.8594C27.4842 12.8751 27.4998 12.9219 27.4842 12.9532C27.4685 12.9844 27.4295 13.0001 27.3982 12.9844C27.3982 12.9844 27.3045 12.9532 27.1404 12.8907C27.0545 12.8672 26.9607 12.8282 26.8435 12.7969C26.7263 12.7657 26.6013 12.7266 26.4529 12.6954C26.3123 12.6641 26.156 12.6329 25.9842 12.6094C25.8201 12.586 25.6404 12.5626 25.4607 12.5469C25.367 12.5391 25.281 12.5391 25.1873 12.5313H25.0545C25.0076 12.5313 24.9763 12.5391 24.9373 12.5469C24.7654 12.5782 24.5701 12.6172 24.3826 12.6719C24.1951 12.7188 23.9998 12.7735 23.8123 12.8282C23.6248 12.8829 23.4373 12.9376 23.2654 12.9922C22.906 13.0938 22.5779 13.1954 22.2888 13.2891C21.7185 13.461 21.3357 13.5782 21.3357 13.5782C21.1717 13.6251 21.0076 13.5391 20.9529 13.3751C20.8982 13.2266 20.9842 13.0547 21.156 13.0001C21.1482 13.0079 21.1482 13.0001 21.156 13.0001Z" fill="black"/>
<path id="Vector_19" d="M26.3906 14.2031C26.3906 14.2031 26.3203 14.1719 26.1953 14.1172C26.0703 14.0625 25.8984 13.9844 25.6953 13.9063C25.5938 13.8672 25.4766 13.8281 25.3594 13.7969C25.2578 13.7734 25.1172 13.7656 24.9766 13.7578C24.8359 13.7422 24.6953 13.7344 24.5469 13.7188C24.3984 13.7031 24.25 13.6953 24.1016 13.6953C23.9531 13.6953 23.8047 13.6953 23.6641 13.7031C23.625 13.7031 23.5938 13.7109 23.5625 13.7109C23.5313 13.7109 23.4922 13.7188 23.4609 13.7188C23.4297 13.7266 23.3906 13.7266 23.3672 13.7344L23.3203 13.7422H23.2656C23.1328 13.7734 23 13.8125 22.875 13.8438C22.75 13.875 22.6328 13.9063 22.5234 13.9375C22.4141 13.9688 22.3203 14 22.2266 14.0313C22.1406 14.0625 22.0625 14.0859 22 14.1094C21.9375 14.1328 21.8906 14.1563 21.8594 14.1719L21.8125 14.1953L21.8516 14.1563C21.875 14.1328 21.9219 14.0938 21.9688 14.0547C22.0234 14.0156 22.0859 13.9688 22.1719 13.9141C22.25 13.8672 22.3438 13.8125 22.4453 13.7578C22.6484 13.6484 22.8906 13.5312 23.1641 13.4219L23.1797 13.4141H23.1875L23.2188 13.4063L23.2813 13.3906C23.3203 13.375 23.3594 13.375 23.3984 13.3672C23.4375 13.3594 23.4766 13.3516 23.5156 13.3516C23.5547 13.3516 23.5938 13.3438 23.6328 13.3438C23.7891 13.3438 23.9453 13.3438 24.1016 13.3594C24.2578 13.3672 24.4063 13.3828 24.5625 13.3984C24.7109 13.4141 24.8594 13.4375 25 13.4609C25.0703 13.4766 25.1406 13.4922 25.2109 13.5L25.2656 13.5078L25.2891 13.5156L25.3203 13.5234C25.3594 13.5313 25.3984 13.5469 25.4297 13.5625C25.5625 13.6172 25.6719 13.6797 25.7734 13.7422C25.9688 13.8672 26.125 13.9844 26.2266 14.0703C26.3359 14.1484 26.3906 14.2031 26.3906 14.2031Z" fill="#222222"/>
<path id="Vector_20" d="M24.1094 15.2812C24.584 15.2812 24.9688 14.8965 24.9688 14.4219C24.9688 13.9473 24.584 13.5625 24.1094 13.5625C23.6348 13.5625 23.25 13.9473 23.25 14.4219C23.25 14.8965 23.6348 15.2812 24.1094 15.2812Z" fill="black"/>
<path id="Vector_21" d="M24.1094 14.2656C24.2043 14.2656 24.2812 14.1887 24.2812 14.0937C24.2812 13.9988 24.2043 13.9219 24.1094 13.9219C24.0145 13.9219 23.9375 13.9988 23.9375 14.0937C23.9375 14.1887 24.0145 14.2656 24.1094 14.2656Z" fill="white"/>
<path id="Vector_22" d="M19.8436 13.586C19.8436 13.586 19.4608 13.4688 18.8905 13.2969C18.6015 13.211 18.2733 13.1094 17.914 13.0001C17.7343 12.9454 17.5546 12.8907 17.3671 12.836C17.1796 12.7813 16.9921 12.7266 16.7968 12.6797C16.6093 12.6329 16.414 12.586 16.2421 12.5547C16.203 12.5547 16.164 12.5391 16.1249 12.5391H15.9921C15.8983 12.5391 15.8046 12.5469 15.7186 12.5547C15.539 12.5704 15.3593 12.586 15.1952 12.6172C15.0311 12.6407 14.8749 12.6719 14.7265 12.7032C14.5858 12.7344 14.453 12.7657 14.3358 12.8047C14.2186 12.836 14.1249 12.8672 14.039 12.8985C13.8749 12.9532 13.7811 12.9922 13.7811 12.9922C13.7421 13.0079 13.703 12.9844 13.6952 12.9532C13.6874 12.9219 13.6952 12.8829 13.7265 12.8672C13.7265 12.8672 13.7499 12.8516 13.789 12.836C13.828 12.8126 13.8905 12.7813 13.9686 12.7422C14.0468 12.7032 14.1483 12.6563 14.2577 12.6094C14.3749 12.5626 14.4999 12.5079 14.6483 12.461C14.7968 12.4141 14.953 12.3594 15.1249 12.3204C15.2968 12.2735 15.4765 12.2422 15.664 12.211C15.7577 12.1954 15.8593 12.1797 15.953 12.1719C15.9999 12.1641 16.0546 12.1641 16.1093 12.1563C16.164 12.1485 16.2265 12.1563 16.2811 12.1563C16.4999 12.1797 16.6952 12.211 16.8983 12.2501C17.1015 12.2891 17.2968 12.3282 17.4921 12.3672C17.6874 12.4063 17.8749 12.4532 18.0546 12.4922C18.4218 12.5782 18.7577 12.6641 19.0546 12.7422C19.3436 12.8204 19.5858 12.8829 19.7577 12.9297C19.9296 12.9766 20.0233 13.0079 20.0233 13.0079C20.1874 13.0547 20.2811 13.2188 20.2343 13.3829C20.1796 13.5391 20.0155 13.6329 19.8436 13.586C19.8515 13.5938 19.8515 13.5938 19.8436 13.586Z" fill="black"/>
<path id="Vector_23" d="M14.7812 14.2031C14.7812 14.2031 14.8359 14.1484 14.9375 14.0625C15.0391 13.9766 15.1953 13.8594 15.3906 13.7344C15.4922 13.6719 15.6016 13.6094 15.7344 13.5547C15.7656 13.5391 15.8047 13.5313 15.8437 13.5156L15.875 13.5078L15.8984 13.5L15.9531 13.4922C16.0234 13.4766 16.0937 13.4609 16.1641 13.4531C16.3047 13.4297 16.4531 13.4062 16.6016 13.3906C16.75 13.375 16.9062 13.3594 17.0625 13.3516C17.2187 13.3437 17.375 13.3359 17.5312 13.3359C17.5703 13.3359 17.6094 13.3437 17.6484 13.3437C17.6875 13.3437 17.7266 13.3516 17.7656 13.3594C17.8047 13.3672 17.8437 13.3672 17.8828 13.3828L17.9453 13.3984L17.9766 13.4062H17.9844L18 13.4141C18.2734 13.5234 18.5078 13.6406 18.7187 13.75C18.8203 13.8047 18.9141 13.8594 18.9922 13.9063C19.0703 13.9531 19.1406 14.0078 19.1953 14.0469C19.25 14.0859 19.2891 14.125 19.3125 14.1484L19.3516 14.1875L19.3047 14.1641C19.2734 14.1484 19.2266 14.1328 19.1641 14.1016C19.1016 14.0781 19.0234 14.0547 18.9375 14.0234C18.8516 13.9922 18.75 13.9687 18.6406 13.9297C18.5312 13.8984 18.4141 13.8672 18.2891 13.8359C18.1641 13.8047 18.0312 13.7656 17.8984 13.7344H17.8437L17.7969 13.7266C17.7734 13.7188 17.7344 13.7188 17.7031 13.7109C17.6719 13.7031 17.6406 13.7031 17.6016 13.7031C17.5703 13.7031 17.5313 13.6953 17.5 13.6953C17.3594 13.6875 17.2109 13.6797 17.0625 13.6875L16.6172 13.7109C16.4688 13.7266 16.3281 13.7344 16.1875 13.75C16.0469 13.7656 15.9062 13.7656 15.8047 13.7891C15.6875 13.8125 15.5781 13.8594 15.4688 13.8984C15.2578 13.9766 15.0859 14.0547 14.9687 14.1094C14.8516 14.1719 14.7812 14.2031 14.7812 14.2031Z" fill="#222222"/>
<path id="Vector_24" d="M17.0625 15.2812C17.5371 15.2812 17.9219 14.8965 17.9219 14.4219C17.9219 13.9473 17.5371 13.5625 17.0625 13.5625C16.5879 13.5625 16.2031 13.9473 16.2031 14.4219C16.2031 14.8965 16.5879 15.2812 17.0625 15.2812Z" fill="black"/>
<path id="Vector_25" d="M17.0625 14.2656C17.1574 14.2656 17.2344 14.1887 17.2344 14.0937C17.2344 13.9988 17.1574 13.9219 17.0625 13.9219C16.9676 13.9219 16.8906 13.9988 16.8906 14.0937C16.8906 14.1887 16.9676 14.2656 17.0625 14.2656Z" fill="white"/>
<path id="Vector_26" d="M22.3355 18.0469C22.3355 18.0469 22.3589 18.0625 22.3902 18.1016C22.4214 18.1406 22.4761 18.1953 22.5308 18.2656C22.5855 18.3437 22.648 18.4375 22.6949 18.5625C22.7183 18.625 22.7339 18.6953 22.7417 18.7734C22.7417 18.8516 22.7261 18.9375 22.687 19.0078C22.648 19.0859 22.5777 19.1484 22.5074 19.2031L22.3902 19.2734C22.3433 19.2969 22.3042 19.3125 22.2574 19.3203C22.1636 19.3437 22.062 19.3594 21.9605 19.3516C21.9058 19.3516 21.8589 19.3359 21.812 19.3281C21.7652 19.3203 21.7183 19.3203 21.6714 19.3203C21.5777 19.3203 21.4839 19.3359 21.398 19.3672C21.312 19.4062 21.2339 19.4609 21.1792 19.5312L21.1324 19.5937C21.1089 19.6172 21.0933 19.6406 21.0699 19.6641C21.023 19.7031 20.9761 19.7422 20.9214 19.7656C20.8667 19.7891 20.812 19.8125 20.7574 19.8203H20.4995L20.4214 19.8125C20.3511 19.8047 20.3042 19.7812 20.2495 19.7578C20.1949 19.7344 20.148 19.6953 20.1011 19.6562L20.0386 19.5937L19.9917 19.5312C19.937 19.4609 19.8589 19.3984 19.773 19.3672C19.687 19.3359 19.5933 19.3203 19.4995 19.3203C19.4527 19.3203 19.4058 19.3203 19.3589 19.3281C19.312 19.3359 19.2652 19.3437 19.2105 19.3516C19.1089 19.3594 19.0074 19.3516 18.9136 19.3203C18.8199 19.2969 18.7339 19.25 18.6636 19.2031C18.5855 19.1484 18.523 19.0859 18.4839 19.0078C18.4449 18.9297 18.4214 18.8437 18.4292 18.7734C18.4292 18.6953 18.4527 18.625 18.4761 18.5625C18.523 18.4375 18.5855 18.3437 18.6402 18.2656C18.6949 18.1875 18.7495 18.1328 18.7808 18.1016C18.812 18.0625 18.8355 18.0469 18.8355 18.0469C18.8355 18.0469 18.7652 18.125 18.6636 18.2812C18.6167 18.3594 18.562 18.4609 18.523 18.5781C18.4917 18.6953 18.4761 18.8516 18.5542 18.9766C18.5933 19.0391 18.648 19.0938 18.7183 19.1406C18.7886 19.1875 18.8667 19.2187 18.9527 19.2422C19.0386 19.2656 19.1245 19.2656 19.2183 19.2578C19.2652 19.25 19.3042 19.2422 19.3589 19.2344C19.4058 19.2266 19.4605 19.2188 19.5152 19.2188C19.6167 19.2188 19.7339 19.2266 19.8355 19.2656C19.937 19.3047 20.0386 19.375 20.1089 19.4687L20.1558 19.5312C20.1714 19.5469 20.187 19.5703 20.2027 19.5859C20.2339 19.6172 20.273 19.6406 20.3199 19.6641C20.3589 19.6875 20.4136 19.6953 20.4527 19.7031L20.5308 19.7109H20.5777H20.6089C20.812 19.7187 20.9917 19.6406 21.1011 19.4687C21.1714 19.375 21.273 19.3125 21.3745 19.2656C21.4839 19.2266 21.5933 19.2109 21.6949 19.2188C21.7495 19.2188 21.7964 19.2266 21.8511 19.2344L21.9917 19.2578C22.0855 19.2656 22.1714 19.2656 22.2574 19.2422C22.2964 19.2344 22.3433 19.2187 22.3745 19.2031C22.4136 19.1875 22.4527 19.1641 22.4839 19.1406C22.5542 19.0938 22.6089 19.0391 22.648 18.9766C22.7261 18.8516 22.7105 18.6953 22.6792 18.5781C22.6402 18.4531 22.5855 18.3594 22.5386 18.2812C22.4136 18.125 22.3355 18.0469 22.3355 18.0469ZM19.1949 22.2422C19.1949 22.2422 19.3433 22.3125 19.5777 22.375C19.6949 22.4062 19.8355 22.4375 19.9839 22.4609C20.062 22.4688 20.1402 22.4844 20.2183 22.4922C20.2964 22.5 20.3824 22.5078 20.4605 22.5078C20.5386 22.5078 20.6245 22.5078 20.7027 22.5C20.7808 22.5 20.8589 22.4922 20.937 22.4766C21.0152 22.4687 21.0855 22.4531 21.1558 22.4375C21.2261 22.4219 21.2886 22.4141 21.3511 22.3906C21.4136 22.375 21.4605 22.3594 21.5074 22.3438C21.5542 22.3281 21.5933 22.3047 21.6245 22.2969C21.687 22.2656 21.7261 22.25 21.7261 22.25C21.7261 22.25 21.687 22.2578 21.6167 22.2734C21.5855 22.2813 21.5386 22.2891 21.4917 22.2969C21.4449 22.3047 21.3902 22.3125 21.3277 22.3203C21.273 22.3359 21.2027 22.3359 21.1402 22.3438C21.0699 22.3516 20.9995 22.3594 20.9292 22.3594C20.8589 22.3672 20.7808 22.3672 20.7027 22.3672C20.6245 22.375 20.5464 22.3672 20.4683 22.3672C20.3902 22.3672 20.312 22.3594 20.2339 22.3594C20.1558 22.3516 20.0777 22.3516 20.0074 22.3438C19.937 22.3359 19.8589 22.3281 19.7964 22.3203C19.7261 22.3125 19.6636 22.3047 19.6011 22.2969C19.4839 22.2812 19.3824 22.2656 19.312 22.2578C19.2339 22.25 19.1949 22.2422 19.1949 22.2422Z" fill="#222222"/>
<path id="Vector_27" d="M17.9141 20.75C17.9141 20.75 19.4531 22.3359 20.5078 22.2969C21.5625 22.3438 23.25 20.75 23.25 20.75L21.5547 20.9688H20.2109L17.9141 20.75Z" fill="#9C5A23"/>
<path id="Vector_28" d="M20.5781 20.5001C20.0281 20.2 18.543 20.5614 17.9141 20.7501C17.9141 20.7501 19.8828 21.0547 20.25 21.3516C20.2969 21.3907 20.3594 21.4141 20.4219 21.4297C20.4688 21.4454 20.5234 21.4532 20.5781 21.461H20.5938C20.6484 21.4532 20.7031 21.4454 20.75 21.4297C20.8125 21.4141 20.8544 21.3813 20.9219 21.3516C21.7843 20.9727 23.2578 20.7501 23.2578 20.7501C22.6132 20.589 21.1272 20.1706 20.5781 20.5001Z" fill="#B37945"/>
<path id="Vector_29" d="M12.5707 13.5938C12.2269 12.9922 11.68 12.5079 11.0707 12.4063C10.7503 12.3516 10.4535 12.4532 10.3285 12.8126C10.1488 13.3438 10.1566 13.961 10.2582 14.5079C10.3753 15.1329 10.68 15.6172 10.9613 16.1563C11.2035 16.6329 11.5472 17.0704 11.641 17.6251C11.6644 17.7501 11.6722 17.8594 11.7269 17.9766C11.8753 18.3282 12.1019 18.5469 12.4457 18.5938C12.5628 18.6094 12.68 18.6016 12.7816 18.5469C12.9222 18.4688 13.016 18.3126 13.0707 18.1485C13.1957 17.7735 13.1722 17.3594 13.1488 16.961C13.1332 16.6485 13.1097 16.3438 13.0941 16.0313C13.055 15.4297 13.0238 14.8204 12.8519 14.2422C12.7894 14.0235 12.6957 13.8047 12.5707 13.5938Z" fill="#D69A5F"/>
<path id="Vector_30" d="M10.3359 12.8203C10.4375 12.5234 10.6563 12.3984 10.9063 12.3984C10.6875 12.4219 10.5 12.5469 10.4063 12.8203C10.2266 13.3516 10.2344 13.9687 10.3359 14.5156C10.4531 15.1406 10.7578 15.625 11.0391 16.1641C11.2813 16.6406 11.625 17.0781 11.7188 17.6328C11.7422 17.7578 11.75 17.8672 11.8047 17.9844C11.9531 18.3359 12.1797 18.5547 12.5234 18.6016C12.5625 18.6094 12.5938 18.6094 12.6328 18.6094C12.5781 18.6172 12.5156 18.6172 12.4609 18.6094C12.1172 18.5625 11.8906 18.3437 11.7422 17.9922C11.6953 17.875 11.6797 17.7734 11.6563 17.6406C11.5625 17.0859 11.2188 16.6484 10.9766 16.1719C10.7031 15.625 10.3906 15.1484 10.2734 14.5234C10.1641 13.9609 10.1563 13.3437 10.3359 12.8203Z" fill="#A87143"/>
<path id="Vector_31" d="M10.3359 12.8203C10.375 12.7109 10.4219 12.6328 10.4844 12.5703C10.7422 12.5234 11.0078 12.5703 11.2422 12.7109C11.4141 12.8203 11.5625 12.9766 11.6719 13.1719C11.7031 13.2266 11.8359 13.4453 11.8047 13.5078C11.7656 13.6094 11.7031 13.5469 11.6172 13.5703C11.2188 13.6797 10.9063 13.8984 10.7734 14.3672C10.6328 14.8594 10.7188 15.4062 10.8672 15.9062C10.8516 15.9062 10.8438 15.8984 10.8281 15.8984C10.5938 15.4609 10.3672 15.0391 10.2734 14.5234C10.1641 13.9609 10.1563 13.3437 10.3359 12.8203Z" fill="#BF8551"/>
<path id="Vector_32" d="M10.266 14.5156C10.1644 13.9609 10.1566 13.3437 10.3363 12.8203C10.4613 12.4531 10.7582 12.3516 11.0785 12.4141C11.68 12.5156 12.2269 13.0078 12.5785 13.6016C12.6957 13.8047 12.7972 14.0312 12.8597 14.25C12.9222 14.4609 12.9691 14.6719 13.0003 14.8906C12.9613 14.8203 12.93 14.7422 12.9066 14.7031C12.6019 14.1797 12.0863 13.6484 11.5316 13.5156C11.1332 13.4219 10.7347 13.6172 10.555 14.0312C10.3832 14.4141 10.4769 14.8437 10.516 15.2656C10.4066 15.0312 10.3128 14.7891 10.266 14.5156Z" fill="#DDAC7A"/>
<path id="Vector_33" d="M12.0941 14.7266C12.2269 14.6016 12.4301 14.625 12.5707 14.7344C12.766 14.875 12.9144 15.0547 13.0394 15.2656C13.0629 15.5235 13.0785 15.7813 13.0941 16.0313C13.1098 16.3438 13.1332 16.6485 13.1488 16.961C13.1488 17 13.1566 17.0391 13.1566 17.0781C13.0785 17.0938 12.9926 17.0625 12.9223 17.0078C12.8363 16.9375 12.7738 16.836 12.7035 16.7422C12.5629 16.5781 12.3832 16.461 12.2191 16.3203C12.0551 16.1875 11.8988 16.0156 11.8441 15.7891C11.7816 15.5391 11.8598 15.2813 11.9301 15.0391C11.9691 14.9297 12.0082 14.8047 12.0941 14.7266Z" fill="#BF8551"/>
<path id="Vector_34" d="M11.9371 15.0469C11.9762 14.9297 12.0152 14.8047 12.0934 14.7266C12.2262 14.6016 12.4293 14.625 12.5699 14.7344C12.7653 14.875 12.9137 15.0547 13.0387 15.2656C13.0465 15.3203 13.0465 15.3828 13.0543 15.4375C12.9449 15.2656 12.8043 15.1172 12.6481 15C12.4996 14.8985 12.2965 14.875 12.1715 14.9922C12.0856 15.0703 12.0465 15.1953 12.0152 15.3125C11.9527 15.5156 11.8903 15.7344 11.9059 15.9453C11.8824 15.8985 11.8668 15.8516 11.8512 15.7969C11.7887 15.5469 11.859 15.2891 11.9371 15.0469Z" fill="#A87143"/>
<path id="Vector_35" d="M29.8511 8.73443C29.7495 7.85161 29.5542 6.97661 29.3042 6.11724C28.7808 4.3438 28.3667 2.9688 26.5855 2.13286C24.7027 1.24224 22.6011 0.851613 20.5386 1.00786C18.4761 0.851613 16.2964 1.24224 14.4136 2.13286C12.6323 2.97661 12.2183 4.3438 11.6948 6.11724C11.4448 6.97661 11.2495 7.8438 11.148 8.73443C11.0698 9.42193 11.0464 10.1172 11.1011 10.8126C11.1323 11.2579 11.1011 12.0157 11.2573 12.4532C11.5698 12.5313 12.1011 12.9454 12.273 13.1563C12.4527 13.3829 12.6011 13.6329 12.7573 13.8829C12.9136 14.1407 13.0777 14.3594 13.2261 14.6172C13.2417 14.6407 13.2573 14.6641 13.2808 14.6797C13.3042 14.6954 13.3355 14.6876 13.3589 14.6876C13.4605 14.6797 13.5698 14.6641 13.6714 14.6407C13.4761 13.5313 12.7495 12.5626 13.3667 11.4219C13.6089 10.9688 13.9214 10.5704 14.0777 10.0704C14.2105 9.64068 14.2417 9.1563 14.3277 8.74224C14.6636 7.07818 16.0073 6.07036 17.6167 6.17974C18.5698 6.24224 19.4839 6.53911 20.4527 6.53911H20.5777C21.5464 6.53911 22.4605 6.24224 23.4136 6.17974C25.023 6.07036 26.3667 7.07818 26.7027 8.74224C26.7886 9.1563 26.8198 9.64068 26.9527 10.0704C27.1011 10.5704 27.4214 10.9688 27.6636 11.4219C28.273 12.5626 27.5542 13.5313 27.3589 14.6407C27.4605 14.6641 27.562 14.6797 27.6714 14.6876C27.6948 14.6876 27.7261 14.6954 27.7495 14.6797C27.773 14.6641 27.7886 14.6407 27.8042 14.6172C27.9605 14.3594 28.1245 14.1407 28.273 13.8829C28.4214 13.6329 28.5698 13.3829 28.7573 13.1563C28.9292 12.9454 29.4527 12.5313 29.773 12.4532C29.937 12.0157 29.898 11.2579 29.9292 10.8126C29.9605 10.1172 29.937 9.42193 29.8511 8.73443Z" fill="#1A1A1A"/>
<path id="Vector_36" d="M26.5859 2.13286C28.3672 2.9688 28.7813 4.3438 29.3047 6.11724L29.5 7C28.9766 5.22656 28.3672 3.9688 26.5859 3.13286C24.7031 2.24224 22.6016 1.85161 20.5391 2.00786C18.4766 1.85161 16.2969 2.24224 14.4141 3.13286C12.6328 3.97661 12.0234 5.22656 11.5 7L11.6953 6.11724C12.2188 4.3438 12.6328 2.97661 14.4141 2.13286C16.2969 1.24224 18.4766 0.851613 20.5391 1.00786C22.6016 0.851613 24.7031 1.24224 26.5859 2.13286Z" fill="white" fill-opacity="0.3"/>
<path id="Vector_37" d="M39.4219 40.0273H26.6719L14.7578 40.0313H1.57031L2 39H39L39.4219 40.0273Z" fill="black" fill-opacity="0.2"/>
</g>
<defs>
<clipPath id="clip0_134_1188">
<rect width="40" height="40" fill="white" transform="translate(0.5 0.5)"/>
</clipPath>
</defs>
</svg>
