<svg xmlns="http://www.w3.org/2000/svg" width="48" height="49" viewBox="0 0 48 49" fill="none">
  <g clip-path="url(#clip0_136_2423)">
    <g filter="url(#filter0_d_136_2423)">
      <mask id="mask0_136_2423" style="mask-type:luminance" maskUnits="userSpaceOnUse" x="0" y="8" width="48" height="34">
        <path d="M47.9985 8.0802H0V41.2868H47.9985V8.0802Z" fill="white"/>
      </mask>
      <g mask="url(#mask0_136_2423)">
        <path fill-rule="evenodd" clip-rule="evenodd" d="M42.3232 9.19813C44.3548 9.7415 45.9397 11.3324 46.4891 13.364C47.926 19.16 47.8324 30.1182 46.5193 36.0049C45.9758 38.0365 44.385 39.6214 42.3534 40.1708C36.6177 41.5895 10.9279 41.4145 5.52435 40.1708C3.49272 39.6274 1.90786 38.0365 1.35844 36.0049C0.00301546 30.4804 0.0965974 18.7978 1.32826 13.3942C1.87164 11.3626 3.46253 9.77774 5.49416 9.22831C13.1618 7.62837 39.5942 8.14458 42.3232 9.19813ZM19.3809 17.6198L31.6974 24.6838L19.3809 31.7477V17.6198Z" fill="black" fill-opacity="0.2"/>
      </g>
    </g>
  </g>
  <defs>
    <filter id="filter0_d_136_2423" x="0.373047" y="8.20996" width="48.8764" height="34.6746" filterUnits="userSpaceOnUse" color-interpolation-filters="sRGB">
      <feFlood flood-opacity="0" result="BackgroundImageFix"/>
      <feColorMatrix in="SourceAlpha" type="matrix" values="0 0 0 0 0 0 0 0 0 0 0 0 0 0 0 0 0 0 127 0" result="hardAlpha"/>
      <feOffset dx="1.71429" dy="1.71429"/>
      <feComposite in2="hardAlpha" operator="out"/>
      <feColorMatrix type="matrix" values="0 0 0 0 0 0 0 0 0 0 0 0 0 0 0 0 0 0 0.1 0"/>
      <feBlend mode="normal" in2="BackgroundImageFix" result="effect1_dropShadow_136_2423"/>
      <feBlend mode="normal" in="SourceGraphic" in2="effect1_dropShadow_136_2423" result="shape"/>
    </filter>
    <clipPath id="clip0_136_2423">
      <rect width="48" height="48" fill="white" transform="translate(0 0.683594)"/>
    </clipPath>
  </defs>
</svg>