<svg width="208" height="166" viewBox="0 0 208 166" fill="none" xmlns="http://www.w3.org/2000/svg">
<rect width="208" height="166" fill="white"/>
<path fill-rule="evenodd" clip-rule="evenodd" d="M52.4156 111.217H128.128C128.556 111.217 128.974 111.171 129.376 111.083C129.778 111.171 130.195 111.217 130.624 111.217H173.888C177.104 111.217 179.712 108.616 179.712 105.407C179.712 102.198 177.104 99.5972 173.888 99.5972H168.896C165.679 99.5972 163.072 96.996 163.072 93.7872C163.072 90.5784 165.679 87.9772 168.896 87.9772H184.704C187.92 87.9772 190.528 85.376 190.528 82.1672C190.528 78.9584 187.92 76.3572 184.704 76.3572H166.4C169.616 76.3572 172.224 73.756 172.224 70.5472C172.224 67.3384 169.616 64.7372 166.4 64.7372H113.152C116.368 64.7372 118.976 62.136 118.976 58.9272C118.976 55.7184 116.368 53.1172 113.152 53.1172H65.7276C62.5111 53.1172 59.9036 55.7184 59.9036 58.9272C59.9036 62.136 62.5111 64.7372 65.7276 64.7372H32.4476C29.231 64.7372 26.6236 67.3384 26.6236 70.5472C26.6236 73.756 29.231 76.3572 32.4476 76.3572H53.2476C56.4641 76.3572 59.0716 78.9584 59.0716 82.1672C59.0716 85.376 56.4641 87.9772 53.2476 87.9772H19.9676C16.751 87.9772 14.1436 90.5784 14.1436 93.7872C14.1436 96.996 16.751 99.5972 19.9676 99.5972H52.4156C49.1991 99.5972 46.5916 102.198 46.5916 105.407C46.5916 108.616 49.1991 111.217 52.4156 111.217ZM188.032 111.217C191.248 111.217 193.856 108.616 193.856 105.407C193.856 102.198 191.248 99.5972 188.032 99.5972C184.815 99.5972 182.208 102.198 182.208 105.407C182.208 108.616 184.815 111.217 188.032 111.217Z" fill="#F3F7FF"/>
<path d="M143.52 37.3516V42.3316" stroke="#6956E5" stroke-width="2.5" stroke-linecap="round" stroke-linejoin="round"/>
<path d="M143.52 48.9688V53.9487" stroke="#6956E5" stroke-width="2.5" stroke-linecap="round" stroke-linejoin="round"/>
<path d="M135.2 45.6553H140.192" stroke="#6956E5" stroke-width="2.5" stroke-linecap="round" stroke-linejoin="round"/>
<path d="M146.849 45.6553H151.841" stroke="#6956E5" stroke-width="2.5" stroke-linecap="round" stroke-linejoin="round"/>
<path d="M74.4639 122.844V126.164" stroke="#6956E5" stroke-width="2.5" stroke-linecap="round" stroke-linejoin="round"/>
<path d="M74.4639 132.805V136.125" stroke="#6956E5" stroke-width="2.5" stroke-linecap="round" stroke-linejoin="round"/>
<path d="M67.8076 129.483H71.1356" stroke="#6956E5" stroke-width="2.5" stroke-linecap="round" stroke-linejoin="round"/>
<path d="M77.792 129.483H81.12" stroke="#6956E5" stroke-width="2.5" stroke-linecap="round" stroke-linejoin="round"/>
<path fill-rule="evenodd" clip-rule="evenodd" d="M133.711 108.831C134.868 107.418 135.909 105.94 136.831 104.409C138.861 101.044 140.324 97.4289 141.218 93.7015C142.123 89.9317 142.445 86.0473 142.184 82.1911C141.955 78.8263 141.282 75.483 140.163 72.2562C139.052 69.0549 137.502 65.9683 135.512 63.089C134.326 61.3733 132.983 59.7313 131.484 58.1825C129.282 55.9087 126.868 53.9647 124.302 52.3519C121.545 50.6189 118.614 49.2682 115.586 48.3012C111.794 47.0902 107.85 46.481 103.905 46.4766C100.835 46.4731 97.7652 46.8358 94.7664 47.5659C91.3904 48.3879 88.1044 49.6756 85.0105 51.431C82.2907 52.9741 79.7193 54.8787 77.3656 57.1459C74.4076 59.9952 72.0116 63.207 70.1798 66.6444C68.3863 70.0097 67.1336 73.5912 66.4236 77.2602C65.6921 81.0402 65.5367 84.9132 65.9596 88.7383C66.5078 93.6962 68.0275 98.5737 70.5235 103.065C72.1207 105.938 74.1176 108.654 76.5155 111.131C80.3222 115.063 84.7665 118.008 89.5265 119.961C95.3151 122.336 101.571 123.243 107.714 122.67C112.87 122.19 117.948 120.668 122.604 118.097" fill="white"/>
<path d="M133.711 108.831C134.868 107.418 135.909 105.94 136.831 104.409C138.861 101.044 140.324 97.4289 141.218 93.7015C142.123 89.9317 142.445 86.0473 142.184 82.1911C141.955 78.8263 141.282 75.483 140.163 72.2562C139.052 69.0549 137.502 65.9683 135.512 63.089C134.326 61.3733 132.983 59.7313 131.484 58.1825C129.282 55.9087 126.868 53.9647 124.302 52.3519C121.545 50.6189 118.614 49.2682 115.586 48.3012C111.794 47.0902 107.85 46.481 103.905 46.4766C100.835 46.4731 97.7652 46.8358 94.7664 47.5659C91.3904 48.3879 88.1044 49.6756 85.0105 51.431C82.2907 52.9741 79.7193 54.8787 77.3656 57.1459C74.4076 59.9952 72.0116 63.207 70.1798 66.6444C68.3863 70.0097 67.1336 73.5912 66.4236 77.2602C65.6921 81.0402 65.5367 84.9132 65.9596 88.7383C66.5078 93.6962 68.0275 98.5737 70.5235 103.065C72.1207 105.938 74.1176 108.654 76.5155 111.131C80.3222 115.063 84.7665 118.008 89.5265 119.961C95.3151 122.336 101.571 123.243 107.714 122.67C112.87 122.19 117.948 120.668 122.604 118.097" stroke="#6956E5" stroke-width="2.5" stroke-linecap="round" stroke-linejoin="round"/>
<path fill-rule="evenodd" clip-rule="evenodd" d="M125.384 116.511C127.802 114.959 129.951 113.023 131.35 111.459L125.384 116.511Z" fill="white"/>
<path d="M125.384 116.511C127.802 114.959 129.951 113.023 131.35 111.459" stroke="#6956E5" stroke-width="2.5" stroke-linecap="round"/>
<path d="M138.944 86.829C138.706 86.8332 138.467 86.8353 138.228 86.8353C117.217 86.8353 100.013 70.4939 98.5716 49.7969C81.8478 52.4285 69.0557 66.9385 69.0557 84.4439C69.0557 103.814 84.7184 119.517 104.039 119.517C122.561 119.517 137.721 105.087 138.944 86.829Z" fill="#231678" fill-opacity="0.05"/>
<path fill-rule="evenodd" clip-rule="evenodd" d="M90.7077 83.3086C89.69 82.371 88.1112 82.443 87.1815 83.4693C86.2518 84.4957 86.3231 86.0878 87.3409 87.0254L99.0879 97.8469C100.513 99.1595 102.723 99.0587 104.025 97.6218C104.079 97.5608 104.079 97.5608 104.132 97.4981L120.896 77.1655C121.777 76.0966 121.632 74.5095 120.572 73.6208C119.512 72.732 117.938 72.878 117.057 73.947L101.296 93.0628L90.7077 83.3086Z" fill="white" stroke="#6956E5" stroke-width="2.5" stroke-linecap="round"/>
<path fill-rule="evenodd" clip-rule="evenodd" d="M92.2059 53.4648C90.5833 54.072 88.9984 54.8098 87.4672 55.6786C85.0878 57.0287 82.8383 58.695 80.7792 60.6787C79.9351 61.4919 79.1434 62.3388 78.404 63.2153M76.116 66.2672C75.528 67.1535 74.987 68.062 74.4929 68.9894C74.1279 69.6743 73.7886 70.3694 73.4749 71.0734" fill="white"/>
<path d="M92.6455 54.6337C93.2927 54.3916 93.6204 53.6719 93.3776 53.0263C93.1348 52.3807 92.4134 52.0536 91.7662 52.2958L92.6455 54.6337ZM87.4672 55.6786L88.086 56.7639L87.4672 55.6786ZM80.7792 60.6787L79.9098 59.7806L80.7792 60.6787ZM77.4464 62.4113C77.0014 62.9389 77.0693 63.7265 77.5982 64.1705C78.127 64.6145 78.9165 64.5468 79.3616 64.0192L77.4464 62.4113ZM77.1597 66.9562C77.5411 66.3812 77.383 65.6066 76.8066 65.226C76.2302 64.8455 75.4537 65.0031 75.0723 65.5781L77.1597 66.9562ZM74.4929 68.9894L75.598 69.5755L74.4929 68.9894ZM72.3313 70.5661C72.0505 71.1962 72.3349 71.934 72.9665 72.2142C73.5981 72.4943 74.3377 72.2107 74.6185 71.5807L72.3313 70.5661ZM91.7662 52.2958C90.0824 52.9259 88.4375 53.6917 86.8484 54.5934L88.086 56.7639C89.5592 55.928 91.0842 55.218 92.6455 54.6337L91.7662 52.2958ZM86.8484 54.5934C84.3788 55.9947 82.0449 57.7237 79.9098 59.7806L81.6486 61.5768C83.6317 59.6664 85.7969 58.0627 88.086 56.7639L86.8484 54.5934ZM79.9098 59.7806C79.0347 60.6236 78.2135 61.502 77.4464 62.4113L79.3616 64.0192C80.0732 63.1755 80.8356 62.3601 81.6486 61.5768L79.9098 59.7806ZM75.0723 65.5781C74.4621 66.4979 73.9006 67.4409 73.3878 68.4033L75.598 69.5755C76.0734 68.6832 76.594 67.809 77.1597 66.9562L75.0723 65.5781ZM73.3878 68.4033C73.009 69.1141 72.6569 69.8356 72.3313 70.5661L74.6185 71.5807C74.9203 70.9033 75.2468 70.2344 75.598 69.5755L73.3878 68.4033Z" fill="#6956E5"/>
</svg>
