<svg width="124" height="314" viewBox="0 0 124 314" fill="none" xmlns="http://www.w3.org/2000/svg">
<path fill-rule="evenodd" clip-rule="evenodd" d="M124.003 0.886011C124.058 1.11467 124.058 1.11524 124.058 1.11524V1.1168L124.051 1.1227L124.032 1.14566C124.015 1.16593 123.987 1.19599 123.953 1.23553C123.882 1.31457 123.775 1.43159 123.633 1.58406C123.35 1.88896 122.925 2.3355 122.35 2.90352C121.203 4.03951 119.467 5.66122 117.113 7.60669C112.404 11.4976 105.215 16.6835 95.2919 21.8687C75.4511 32.2391 44.6854 42.6062 0.977771 42.6062V42.088C44.6688 42.088 75.4155 31.725 95.2373 21.3647C105.148 16.1845 112.328 11.0051 117.028 7.122C119.379 5.18047 121.111 3.56301 122.253 2.43159C122.823 1.86585 123.248 1.42169 123.528 1.11923C123.668 0.968001 123.775 0.852221 123.844 0.774377C123.877 0.735456 123.904 0.70607 123.923 0.686427L123.942 0.664453L123.946 0.65901V0.657715C123.946 0.657715 123.946 0.657351 124.003 0.886011ZM124.003 21.6165C124.053 21.8502 124.053 21.8507 124.053 21.8507V21.8521L124.048 21.8574L124.027 21.878C124.01 21.8962 123.982 21.9233 123.949 21.9588C123.877 22.03 123.77 22.1353 123.63 22.2724C123.345 22.5468 122.92 22.9487 122.346 23.4598C121.198 24.4821 119.465 25.9415 117.109 27.6923C112.399 31.1939 105.21 35.861 95.2895 40.5275C75.4511 49.8604 44.6854 56.5994 0.977771 56.5994V56.0812C44.6711 56.0812 75.4179 49.3452 95.2396 40.0206C105.151 35.3583 112.333 30.6968 117.033 27.2017C119.384 25.4542 121.113 23.9984 122.255 22.98C122.828 22.4708 123.253 22.071 123.533 21.7988C123.673 21.6626 123.778 21.5584 123.849 21.4883C123.882 21.4533 123.908 21.4268 123.925 21.4091L123.946 21.3893L123.951 21.3844V21.3833C123.951 21.3833 123.951 21.3829 124.003 21.6165ZM124.003 157.92C124.006 157.92 124.006 157.92 124.006 157.661C124.006 157.402 124.006 157.402 124.003 157.402H0.97967V157.92H124.003ZM124.006 175.8C124.006 176.059 124.006 176.059 124.003 176.059H0.97967V175.541H124.003C124.006 175.541 124.006 175.541 124.006 175.8ZM124.006 192.903C124.006 193.162 124.006 193.162 124.003 193.162H0.97967V192.644H124.003C124.006 192.644 124.006 192.644 124.006 192.903ZM124.039 44.6674C124.039 44.6674 124.039 44.6674 124.003 44.4207C123.968 44.1735 123.968 44.174 123.968 44.174L123.965 44.1745L123.96 44.1781L123.942 44.1911C123.925 44.203 123.899 44.2206 123.863 44.2439C123.794 44.2911 123.69 44.3606 123.547 44.4513C123.267 44.6332 122.842 44.8996 122.269 45.2395C121.127 45.9185 119.396 46.8897 117.044 48.0548C112.342 50.3854 105.162 53.494 95.2491 56.6025C75.4226 62.8197 44.6735 69.0384 0.978003 69.0384V69.5566C44.683 69.5566 75.444 63.3364 95.2824 57.1156C105.2 54.005 112.39 50.8938 117.097 48.5601C119.453 47.3935 121.187 46.4207 122.334 45.7397C122.906 45.3987 123.331 45.1312 123.616 44.9483C123.756 44.8571 123.863 44.7871 123.932 44.7394C123.968 44.7156 123.994 44.698 124.013 44.6855L124.032 44.672L124.037 44.6684L124.039 44.6674ZM124.003 65.1508C124.027 65.4043 124.027 65.4043 124.027 65.4043L124.022 65.4074L124.001 65.4162C123.984 65.4245 123.958 65.4364 123.923 65.4519C123.851 65.4836 123.747 65.5302 123.604 65.5914C123.322 65.7132 122.896 65.8914 122.324 66.1184C121.177 66.5724 119.443 67.2203 117.09 67.9982C112.382 69.554 105.196 71.6276 95.2776 73.7012C75.4416 77.8479 44.6806 81.9945 0.978249 81.9945V81.4762C44.6759 81.4762 75.4274 77.3301 95.2539 73.185C105.167 71.1125 112.349 69.0399 117.054 67.4856C119.405 66.7087 121.137 66.0614 122.281 65.6085C122.851 65.382 123.277 65.2042 123.559 65.0829C123.699 65.0223 123.804 64.9757 123.875 64.9446C123.908 64.929 123.934 64.9171 123.953 64.9093L123.972 64.9L123.977 64.8974C123.98 64.8974 123.98 64.8974 124.003 65.1508ZM124.017 84.5838C124.017 84.5838 124.018 84.5838 124.003 84.3267C123.989 84.0691 123.989 84.0691 123.989 84.0691L123.963 84.0759C123.946 84.0805 123.92 84.0873 123.885 84.0961C123.816 84.1132 123.711 84.1396 123.569 84.1738C123.288 84.2417 122.863 84.3423 122.291 84.4697C121.146 84.7247 119.415 85.0886 117.061 85.526C112.356 86.4003 105.174 87.5664 95.2586 88.732C75.4297 91.0642 44.6759 93.3964 0.978728 93.3964V93.9146C44.6806 93.9146 75.4393 91.5819 95.2729 89.2497C105.189 88.0836 112.375 86.917 117.083 86.0422C119.436 85.6048 121.17 85.2404 122.315 84.9849C122.887 84.8574 123.312 84.7574 123.595 84.689C123.737 84.6548 123.842 84.6283 123.913 84.6107C123.949 84.6019 123.975 84.5952 123.991 84.5905L124.017 84.5838ZM124.003 102.984C124.015 103.242 124.013 103.242 124.013 103.242L123.987 103.247C123.97 103.25 123.944 103.255 123.908 103.262C123.839 103.275 123.733 103.293 123.592 103.318C123.31 103.367 122.885 103.44 122.312 103.532C121.165 103.716 119.431 103.979 117.08 104.296C112.373 104.927 105.189 105.769 95.2705 106.612C75.4369 108.296 44.6806 109.98 0.978728 109.98V109.462C44.6783 109.462 75.4321 107.778 95.261 106.094C105.177 105.252 112.361 104.41 117.064 103.778C119.417 103.462 121.149 103.199 122.293 103.015C122.866 102.923 123.291 102.851 123.573 102.801C123.713 102.776 123.818 102.758 123.889 102.745L123.968 102.731L123.994 102.726C123.994 102.726 123.994 102.726 124.003 102.984ZM124.006 122.42C124.006 122.42 124.006 122.42 124.003 122.161C124.001 121.902 124.001 121.902 124.001 121.902L123.896 121.908C123.825 121.911 123.721 121.918 123.578 121.925C123.298 121.94 122.873 121.962 122.3 121.991C121.156 122.048 119.422 122.129 117.068 122.225C112.363 122.42 105.179 122.679 95.2634 122.938C75.4345 123.456 44.6782 123.975 0.978481 123.975V124.493C44.6782 124.493 75.4345 123.975 95.2681 123.456C105.184 123.197 112.368 122.938 117.073 122.744C119.427 122.647 121.16 122.565 122.305 122.509C122.878 122.48 123.303 122.458 123.585 122.443C123.725 122.435 123.832 122.43 123.901 122.426L124.006 122.42ZM124.003 140.818C124.003 140.818 124.003 140.818 124.003 140.559C124.003 140.3 124.003 140.3 124.003 140.3H0.977539V140.818H124.003ZM124.055 312.647C124.055 312.647 124.056 312.648 124.006 312.881C123.953 313.115 123.953 313.115 123.953 313.115L123.951 313.113L123.946 313.109L123.927 313.089C123.911 313.071 123.884 313.045 123.849 313.01C123.78 312.939 123.676 312.835 123.535 312.699C123.253 312.427 122.83 312.027 122.258 311.518C121.115 310.499 119.384 309.044 117.035 307.296C112.333 303.801 105.153 299.139 95.242 294.477C75.4203 285.152 44.6711 275.825 0.97967 275.825V275.307C44.6877 275.307 75.4511 284.637 95.2919 293.97C105.212 298.637 112.401 303.304 117.111 306.806C119.467 308.556 121.201 310.016 122.348 311.038C122.923 311.549 123.348 311.951 123.63 312.226C123.773 312.363 123.88 312.468 123.949 312.539C123.984 312.575 124.01 312.602 124.029 312.62L124.048 312.641L124.053 312.646L124.055 312.647ZM124.006 290.078C124.041 289.831 124.041 289.83 124.041 289.83L124.039 289.829L124.034 289.826L124.015 289.812C123.996 289.8 123.97 289.782 123.934 289.758C123.865 289.711 123.759 289.641 123.616 289.549C123.334 289.367 122.908 289.099 122.334 288.759C121.189 288.078 119.453 287.105 117.099 285.938C112.389 283.604 105.203 280.493 95.2847 277.383C75.4464 271.161 44.6854 264.942 0.979916 264.942V265.46C44.6759 265.46 75.425 271.679 95.2515 277.896C105.162 281.004 112.344 284.113 117.047 286.444C119.398 287.609 121.129 288.579 122.272 289.259C122.844 289.598 123.269 289.865 123.55 290.046C123.69 290.138 123.797 290.207 123.866 290.254C123.901 290.277 123.925 290.295 123.944 290.307L123.963 290.32L123.968 290.323V290.324C123.968 290.324 123.97 290.324 124.006 290.078ZM124.029 269.093C124.029 269.093 124.029 269.094 124.006 269.347C123.98 269.601 123.98 269.6 123.98 269.6L123.975 269.598L123.956 269.589C123.937 269.581 123.911 269.569 123.877 269.554C123.806 269.522 123.702 269.476 123.562 269.415C123.279 269.294 122.854 269.116 122.284 268.89C121.139 268.437 119.408 267.789 117.056 267.012C112.352 265.458 105.169 263.386 95.2562 261.313C75.4297 257.168 44.6759 253.022 0.98038 253.022V252.504C44.683 252.504 75.444 256.65 95.28 260.797C105.196 262.871 112.382 264.944 117.092 266.5C119.446 267.277 121.179 267.926 122.324 268.38C122.899 268.607 123.324 268.785 123.607 268.907C123.749 268.968 123.854 269.014 123.925 269.046C123.961 269.062 123.987 269.074 124.003 269.082L124.022 269.091L124.029 269.093ZM124.006 250.172C124.02 249.915 124.02 249.915 124.017 249.915L123.991 249.908C123.975 249.903 123.949 249.896 123.913 249.888C123.844 249.87 123.737 249.843 123.597 249.809C123.315 249.741 122.887 249.641 122.315 249.513C121.17 249.258 119.436 248.893 117.083 248.456C112.375 247.581 105.191 246.415 95.2729 245.249C75.4393 242.916 44.6806 240.584 0.97967 240.584V241.102C44.6782 241.102 75.4321 243.434 95.261 245.766C105.174 246.932 112.359 248.098 117.064 248.972C119.415 249.409 121.146 249.774 122.291 250.029C122.863 250.156 123.288 250.256 123.571 250.324C123.711 250.359 123.816 250.385 123.887 250.402C123.92 250.411 123.946 250.418 123.965 250.422L123.991 250.429C123.991 250.429 123.991 250.429 124.006 250.172ZM124.015 231.256C124.015 231.256 124.015 231.256 124.006 231.514C123.994 231.773 123.994 231.772 123.994 231.772L123.968 231.767C123.951 231.764 123.925 231.76 123.889 231.753C123.82 231.74 123.716 231.721 123.573 231.697C123.293 231.648 122.868 231.575 122.296 231.483C121.151 231.299 119.417 231.036 117.066 230.72C112.361 230.089 105.177 229.247 95.2634 228.404C75.4321 226.72 44.6783 225.036 0.979916 225.036V224.517C44.6806 224.517 75.4393 226.202 95.2729 227.887C105.189 228.729 112.373 229.571 117.08 230.203C119.434 230.519 121.168 230.782 122.312 230.966C122.885 231.058 123.31 231.131 123.592 231.18C123.735 231.205 123.839 231.224 123.911 231.237C123.944 231.243 123.972 231.248 123.989 231.251L124.015 231.256ZM124.006 212.339C124.008 212.079 124.008 212.079 124.008 212.079L123.903 212.073C123.835 212.07 123.728 212.063 123.588 212.056C123.305 212.041 122.88 212.019 122.308 211.99C121.163 211.933 119.429 211.852 117.075 211.756C112.37 211.561 105.186 211.302 95.2705 211.043C75.4369 210.525 44.6806 210.006 0.98038 210.006V210.525C44.6806 210.525 75.4369 211.043 95.2658 211.561C105.181 211.82 112.366 212.079 117.071 212.273C119.424 212.371 121.156 212.452 122.3 212.509C122.873 212.537 123.298 212.559 123.58 212.574C123.723 212.582 123.828 212.587 123.896 212.592L124.001 212.597C124.003 212.597 124.003 212.597 124.006 212.339Z" fill="url(#paint0_linear_149_15019)"/>
<defs>
<linearGradient id="paint0_linear_149_15019" x1="3.23223" y1="99.3875" x2="130.822" y2="115.14" gradientUnits="userSpaceOnUse">
<stop offset="0.1875" stop-color="#F2F5FF"/>
<stop offset="0.390625" stop-color="#F8522E"/>
<stop offset="0.46875" stop-color="#AA3FFF"/>
<stop offset="0.651042" stop-color="#E54190"/>
<stop offset="0.802083" stop-color="#5B21FF"/>
<stop offset="1" stop-color="#0742FE"/>
</linearGradient>
</defs>
</svg>
