<svg width="124" height="313" viewBox="0 0 124 313" fill="none" xmlns="http://www.w3.org/2000/svg">
<path fill-rule="evenodd" clip-rule="evenodd" d="M0.0573238 0.3677C0.00144136 0.596359 0.00195329 0.596931 0.00195329 0.596931L0.00328173 0.598485L0.00838972 0.604394L0.0284317 0.627353C0.0461679 0.647618 0.0726639 0.677675 0.107981 0.717219C0.178616 0.796255 0.284537 0.91328 0.426237 1.06575C0.709636 1.37065 1.13615 1.81719 1.70971 2.38521C2.85685 3.5212 4.59221 5.14291 6.94731 7.08838C11.6575 10.9793 18.8467 16.1652 28.7671 21.3504C48.6081 31.7208 79.3736 42.0879 123.082 42.0879V41.5697C79.3909 41.5697 48.6442 31.2066 28.8224 20.8464C18.9117 15.6662 11.7321 10.4868 7.03139 6.60369C4.68104 4.66216 2.95038 3.0447 1.80786 1.91328C1.23661 1.34754 0.812385 0.903381 0.531257 0.60092C0.390695 0.44969 0.285903 0.333911 0.216392 0.256067C0.181636 0.217145 0.155701 0.187759 0.138524 0.168117L0.119319 0.146142L0.114629 0.140699L0.11351 0.139404C0.11351 0.139404 0.113206 0.139041 0.0573238 0.3677ZM0.0574243 21.0982C0.00603738 21.3319 0.00654527 21.3324 0.00654527 21.3324L0.00786933 21.3338L0.0129688 21.3391L0.0329933 21.3597C0.050718 21.3779 0.0772018 21.405 0.112507 21.4405C0.183117 21.5117 0.289011 21.617 0.430685 21.7541C0.71403 22.0285 1.14048 22.4304 1.71399 22.9415C2.86101 23.9638 4.5962 25.4232 6.95116 27.174C11.6611 30.6756 18.8499 35.3427 28.7699 40.0092C48.61 49.3421 79.3747 56.0811 123.082 56.0811V55.5629C79.3902 55.5629 48.6423 48.8269 28.82 39.5023C18.9087 34.84 11.7288 30.1785 7.02775 26.6834C4.67724 24.9359 2.94643 23.4801 1.80379 22.4617C1.23247 21.9525 0.808191 21.5527 0.52701 21.2804C0.38642 21.1443 0.281604 21.0401 0.212067 20.97C0.1773 20.935 0.151352 20.9085 0.134163 20.8908L0.114941 20.871L0.110243 20.8661L0.109119 20.8649C0.109119 20.8649 0.108811 20.8646 0.0574243 21.0982ZM0.0564389 157.402C0.0564389 157.402 0.0560308 157.402 0.0560308 157.143C0.0560308 156.883 0.0564389 156.883 0.0564389 156.883H123.081V157.402H0.0564389ZM0.0560308 175.282C0.0560308 175.541 0.0564389 175.541 0.0564389 175.541H123.081V175.023H0.0564389C0.0564389 175.023 0.0560308 175.023 0.0560308 175.282ZM0.0560308 192.385C0.0560308 192.644 0.0564389 192.644 0.0564389 192.644H123.081V192.126H0.0564389C0.0564389 192.126 0.0560308 192.126 0.0560308 192.385ZM0.0214432 44.1491C0.0214432 44.1491 0.0209567 44.1491 0.0571488 43.9024C0.0933409 43.6552 0.0936701 43.6557 0.0936701 43.6557L0.0948153 43.6562L0.0995572 43.6598L0.118866 43.6728C0.136114 43.6847 0.16212 43.7023 0.196948 43.7256C0.266603 43.7728 0.37154 43.8423 0.512257 43.9329C0.793687 44.1149 1.21823 44.3813 1.78981 44.7212C2.93299 45.4002 4.66437 46.3714 7.01547 47.5365C11.7177 49.8671 18.899 52.9757 28.8115 56.0842C48.6368 62.3014 79.3873 68.52 123.082 68.52V69.0383C79.3769 69.0383 48.6152 62.8181 28.7778 56.5973C18.8591 53.4867 11.6716 50.3755 6.96287 48.0418C4.60853 46.8751 2.87388 45.9024 1.72742 45.2214C1.15418 44.8803 0.727983 44.6129 0.444887 44.43C0.30334 44.3388 0.197567 44.2688 0.127076 44.2211C0.0918304 44.1973 0.0654054 44.1796 0.0477395 44.1672L0.0278021 44.1537L0.0227457 44.1501L0.0214432 44.1491ZM0.0568944 64.6325C0.0321184 64.886 0.0325829 64.886 0.0325829 64.886L0.0388762 64.8891L0.0587258 64.8979C0.076333 64.9062 0.102699 64.9181 0.137886 64.9336C0.208259 64.9652 0.313913 65.0119 0.455342 65.0731C0.7382 65.1948 1.16415 65.3731 1.73715 65.6001C2.88314 66.0541 4.61729 66.702 6.97116 67.4799C11.6789 69.0357 18.8654 71.1093 28.783 73.1829C48.6185 77.3295 79.3785 81.4762 123.082 81.4762V80.9579C79.3852 80.9579 48.6328 76.8118 28.8058 72.6667C18.8922 70.5941 11.7099 68.5216 7.00671 66.9673C4.65508 66.1904 2.92323 65.5431 1.77957 65.0902C1.20774 64.8637 0.782961 64.6859 0.501294 64.5646C0.360459 64.504 0.255403 64.4574 0.185629 64.4263C0.150742 64.4107 0.124677 64.3988 0.107371 64.391L0.0879741 64.3817L0.0820212 64.3791C0.0820212 64.3791 0.0816702 64.3791 0.0568944 64.6325ZM0.0428014 84.0655C0.0428014 84.0655 0.0423601 84.0655 0.0565087 83.8084C0.070657 83.5508 0.0710316 83.5508 0.0710316 83.5508L0.0965448 83.5575C0.113913 83.5622 0.14004 83.569 0.174989 83.5778C0.244886 83.5949 0.350066 83.6213 0.491024 83.6555C0.772939 83.7234 1.19796 83.8239 1.77004 83.9514C2.91418 84.2064 4.64653 84.5702 6.99861 85.0077C11.7028 85.882 18.8859 87.0481 28.8003 88.2137C48.6292 90.5459 79.3835 92.8781 123.081 92.8781V93.3963C79.3795 93.3963 48.6211 91.0636 28.7875 88.7314C18.8708 87.5653 11.6852 86.3987 6.97847 85.5239C4.62508 85.0864 2.89141 84.7221 1.74591 84.4666C1.17316 84.3391 0.747451 84.2391 0.46484 84.1707C0.323534 84.1365 0.218003 84.11 0.147755 84.0924C0.11263 84.0836 0.0863259 84.0769 0.0687808 84.0722L0.0428014 84.0655ZM0.0563427 102.465C0.0460896 102.724 0.0465218 102.724 0.0465218 102.724L0.072438 102.729C0.0899594 102.732 0.116239 102.737 0.15134 102.743C0.221541 102.756 0.327026 102.775 0.468284 102.8C0.750799 102.849 1.17642 102.922 1.74907 103.014C2.8944 103.198 4.62789 103.461 6.98108 103.777C11.6875 104.409 18.8728 105.251 28.7892 106.093C48.6221 107.778 79.38 109.462 123.081 109.462V108.944C79.3828 108.944 48.628 107.259 28.7984 105.576C18.8837 104.733 11.7002 103.891 6.99567 103.26C4.6434 102.944 2.91088 102.681 1.76654 102.497C1.19438 102.405 0.76926 102.332 0.48725 102.283C0.346244 102.258 0.241015 102.24 0.171072 102.227L0.0925557 102.213L0.0669793 102.207C0.0669793 102.207 0.066596 102.207 0.0563427 102.465ZM0.0539914 121.902C0.0539914 121.902 0.053576 121.902 0.0567414 121.642C0.0599071 121.383 0.0603073 121.383 0.0603073 121.383L0.16465 121.389C0.234683 121.393 0.339998 121.399 0.481092 121.407C0.763275 121.422 1.18856 121.444 1.7609 121.472C2.90556 121.529 4.63843 121.61 6.99101 121.707C11.6962 121.902 18.8803 122.161 28.7956 122.42C48.6264 122.938 79.3821 123.456 123.082 123.456V123.975C79.3814 123.975 48.6247 123.456 28.7927 122.938C18.8769 122.679 11.6923 122.42 6.98652 122.225C4.63366 122.129 2.90048 122.047 1.75551 121.991C1.18302 121.962 0.75758 121.94 0.475238 121.925C0.334068 121.917 0.228672 121.911 0.158559 121.907L0.0539914 121.902ZM0.0579783 140.3C0.0579783 140.3 0.0575706 140.3 0.0575706 140.041C0.0575706 139.782 0.0579783 139.782 0.0579783 139.782H123.083V140.3H0.0579783ZM0.00506132 312.129C0.00506132 312.129 0.00455343 312.129 0.0559404 312.363C0.107327 312.597 0.107635 312.596 0.107635 312.596L0.108759 312.595L0.113457 312.591L0.132679 312.57C0.149868 312.553 0.175816 312.526 0.210583 312.492C0.280119 312.421 0.384935 312.317 0.525526 312.181C0.806707 311.908 1.23099 311.509 1.8023 310.999C2.94494 309.981 4.67574 308.525 7.02626 306.778C11.7273 303.283 18.9072 298.621 28.8184 293.959C48.6408 284.634 79.3888 275.307 123.081 275.307V274.789C79.3731 274.789 48.6085 284.119 28.7685 293.452C18.8484 298.118 11.6596 302.786 6.94969 306.287C4.59473 308.038 2.85951 309.498 1.71251 310.52C1.139 311.031 0.712545 311.433 0.429201 311.707C0.287529 311.844 0.181633 311.95 0.111023 312.021C0.0757179 312.056 0.0492338 312.084 0.0315094 312.102L0.0114849 312.123L0.00638539 312.128L0.00506132 312.129ZM0.0556093 289.559C0.0194171 289.313 0.0199036 289.312 0.0199036 289.312L0.0212061 289.311L0.0262624 289.308L0.0462 289.294C0.063866 289.282 0.0902909 289.264 0.125536 289.24C0.196027 289.193 0.301801 289.123 0.443348 289.031C0.726444 288.849 1.15264 288.581 1.72588 288.24C2.87236 287.559 4.60699 286.587 6.96135 285.419C11.67 283.086 18.8576 279.975 28.7761 276.864C48.6135 270.643 79.3755 264.423 123.081 264.423V264.942C79.3857 264.942 48.6351 271.16 28.8101 277.377C18.8974 280.486 11.7162 283.595 7.01393 285.925C4.66282 287.09 2.93145 288.061 1.78827 288.74C1.21668 289.08 0.792148 289.347 0.510718 289.528C0.370001 289.619 0.265062 289.689 0.195408 289.736C0.160581 289.759 0.134574 289.776 0.117327 289.788L0.0980178 289.802L0.0932758 289.805L0.0921306 289.806C0.0921306 289.806 0.0918014 289.806 0.0556093 289.559ZM0.0310508 268.575C0.0310508 268.575 0.0305863 268.576 0.055362 268.829C0.0801378 269.083 0.0804888 269.082 0.0804888 269.082L0.0864418 269.079L0.105839 269.071C0.123145 269.063 0.14921 269.051 0.184097 269.035C0.253869 269.004 0.358927 268.958 0.499762 268.897C0.78143 268.776 1.20621 268.598 1.77804 268.372C2.92169 267.919 4.65356 267.271 7.00517 266.494C11.7084 264.94 18.8906 262.867 28.8041 260.795C48.6313 256.649 79.3838 252.504 123.08 252.504V251.985C79.3769 251.985 48.6168 256.132 28.7816 260.279C18.8638 262.352 11.6773 264.426 6.96961 265.981C4.61575 266.759 2.8816 267.408 1.73562 267.862C1.16262 268.089 0.736668 268.267 0.45381 268.389C0.312381 268.449 0.206726 268.496 0.136353 268.527C0.101167 268.544 0.0748009 268.555 0.0571934 268.563L0.0373439 268.573L0.0310508 268.575ZM0.055904 249.653C0.0417557 249.396 0.0421969 249.396 0.0421969 249.396L0.0681763 249.389C0.0857214 249.385 0.112025 249.378 0.14715 249.369C0.217399 249.352 0.322929 249.325 0.464234 249.291C0.746845 249.223 1.17255 249.123 1.74531 248.995C2.89081 248.74 4.62447 248.375 6.97785 247.937C11.6846 247.063 18.8702 245.896 28.787 244.73C48.6207 242.398 79.379 240.065 123.081 240.065V240.584C79.3828 240.584 48.6287 242.916 28.7999 245.247C18.8853 246.414 11.7022 247.58 6.99802 248.454C4.64591 248.891 2.91359 249.255 1.76943 249.51C1.19736 249.638 0.772336 249.738 0.490421 249.806C0.349462 249.84 0.244281 249.866 0.174384 249.884C0.139436 249.893 0.113308 249.899 0.0959403 249.904L0.0704271 249.91C0.0704271 249.91 0.0700526 249.911 0.055904 249.653ZM0.0459174 230.738C0.0459174 230.738 0.0454851 230.738 0.0557382 230.996C0.0659916 231.254 0.0663749 231.254 0.0663749 231.254L0.0919513 231.249C0.109343 231.246 0.135495 231.241 0.170467 231.235C0.240412 231.222 0.345641 231.203 0.486645 231.179C0.768654 231.129 1.19377 231.057 1.76594 230.965C2.91026 230.781 4.6428 230.517 6.99505 230.202C11.6996 229.57 18.8831 228.728 28.798 227.886C48.6273 226.202 79.3821 224.517 123.081 224.517V223.999C79.3793 223.999 48.6216 225.683 28.7887 227.368C18.8721 228.21 11.6869 229.053 6.98047 229.684C4.62727 230.001 2.89378 230.264 1.74847 230.448C1.17581 230.54 0.750194 230.613 0.467678 230.662C0.32642 230.687 0.220937 230.705 0.150736 230.718C0.115635 230.725 0.0893549 230.729 0.0718336 230.733L0.0459174 230.738ZM0.0552093 211.82C0.0520437 211.561 0.0524591 211.561 0.0524591 211.561L0.157027 211.555C0.22714 211.551 0.332536 211.545 0.473706 211.538C0.756048 211.522 1.18149 211.501 1.75398 211.472C2.89896 211.415 4.63211 211.334 6.985 211.237C11.6908 211.043 18.8754 210.784 28.7913 210.525C48.623 210.006 79.3797 209.488 123.08 209.488V210.006C79.3807 210.006 48.6249 210.525 28.7942 211.043C18.8788 211.302 11.6947 211.561 6.98949 211.755C4.63689 211.852 2.90404 211.933 1.75937 211.99C1.18703 212.018 0.761743 212.041 0.47956 212.056C0.338466 212.063 0.23315 212.069 0.163117 212.073L0.0587751 212.079C0.0587751 212.079 0.0583747 212.079 0.0552093 211.82Z" fill="url(#paint0_linear_149_15020)"/>
<defs>
<linearGradient id="paint0_linear_149_15020" x1="2.25665" y1="98.8692" x2="129.847" y2="114.622" gradientUnits="userSpaceOnUse">
<stop stop-color="#0742FE"/>
<stop offset="0.119641" stop-color="#5B21FF"/>
<stop offset="0.288809" stop-color="#AA3FFF"/>
<stop offset="0.453092" stop-color="#E54190"/>
<stop offset="0.639675" stop-color="#F8522E"/>
<stop offset="0.826875" stop-color="#ffffff"/>
</linearGradient>
</defs>
</svg>
