<svg width="432" height="397" viewBox="0 0 432 397" fill="none" xmlns="http://www.w3.org/2000/svg">
<path fill-rule="evenodd" clip-rule="evenodd" d="M432.009 0.929892C432.201 1.21962 432.201 1.22034 432.201 1.22034V1.22231L432.176 1.2298L432.109 1.25889C432.051 1.28457 431.951 1.32265 431.834 1.37276C431.584 1.4729 431.209 1.62118 430.709 1.81438C429.717 2.2007 428.226 2.7665 426.209 3.48623C422.184 4.92561 416.092 6.98043 407.834 9.44548C391.309 14.3756 366.084 20.9465 331.267 27.5165C261.651 40.6565 153.701 53.7925 0.340658 53.7925V53.1358C153.642 53.1358 261.526 40.0051 331.076 26.8779C365.851 20.3142 391.042 13.7515 407.534 8.83135C415.784 6.37129 421.859 4.32185 425.867 2.88825C427.867 2.17142 429.359 1.60864 430.342 1.2254C430.834 1.03378 431.209 0.887079 431.451 0.788445C431.567 0.739128 431.659 0.701894 431.726 0.677006L431.792 0.649162L431.809 0.642266V0.640625C431.809 0.640625 431.809 0.640164 432.009 0.929892ZM432.009 27.197C432.184 27.493 432.184 27.4937 432.184 27.4937V27.4954L432.167 27.5021L432.092 27.5283C432.034 27.5514 431.934 27.5857 431.817 27.6307C431.567 27.7209 431.192 27.8543 430.701 28.0281C429.701 28.3757 428.209 28.8849 426.192 29.5326C422.167 30.8279 416.084 32.6771 407.817 34.8955C391.292 39.3323 366.067 45.2458 331.259 51.1585C261.651 62.984 153.701 71.5229 0.340658 71.5229V70.8662C153.651 70.8662 261.534 62.3313 331.084 50.5163C365.859 44.6088 391.059 38.7023 407.551 34.2738C415.801 32.0596 421.867 30.215 425.876 28.9246C427.884 28.2795 429.376 27.7728 430.359 27.4279C430.851 27.2554 431.217 27.1233 431.467 27.0345C431.584 26.9901 431.676 26.9566 431.734 26.9342L431.809 26.9091L431.826 26.9029V26.9014C431.826 26.9014 431.826 26.901 432.009 27.197ZM432.009 199.904C432.017 199.904 432.017 199.904 432.017 199.575C432.017 199.247 432.017 199.247 432.009 199.247H0.347321V199.904H432.009ZM432.017 222.559C432.017 222.887 432.017 222.887 432.009 222.887H0.347321V222.231H432.009C432.017 222.231 432.017 222.231 432.017 222.559ZM432.017 244.23C432.017 244.558 432.017 244.558 432.009 244.558H0.347321V243.901H432.009C432.017 243.901 432.017 243.901 432.017 244.23ZM432.134 56.4041C432.134 56.4041 432.134 56.4041 432.009 56.0915C431.884 55.7783 431.884 55.7789 431.884 55.7789L431.876 55.7796L431.859 55.7842L431.792 55.8006C431.734 55.8157 431.642 55.838 431.517 55.8676C431.276 55.9273 430.909 56.0153 430.409 56.1303C429.426 56.3608 427.934 56.6983 425.926 57.1291C421.917 57.9893 415.842 59.2199 407.592 60.6962C391.092 63.6493 365.901 67.588 331.117 71.5268C261.551 79.4044 153.659 87.2839 0.341471 87.2839V87.9406C153.692 87.9406 261.626 80.0591 331.234 72.1769C366.034 68.2355 391.259 64.2935 407.776 61.3364C416.042 59.8582 422.126 58.6256 426.151 57.7628C428.159 57.3307 429.651 56.9918 430.651 56.76C431.142 56.6444 431.517 56.5558 431.759 56.4954C431.884 56.4652 431.976 56.4428 432.042 56.4271L432.109 56.41L432.126 56.4054L432.134 56.4041ZM432.009 82.3581C432.092 82.6793 432.092 82.6793 432.092 82.6793L432.076 82.6832L432.001 82.6944C431.942 82.7049 431.851 82.72 431.726 82.7397C431.476 82.7797 431.109 82.8388 430.609 82.9163C429.617 83.0706 428.126 83.2965 426.117 83.5842C422.092 84.1594 416.009 84.9803 407.751 85.966C391.234 87.9373 366.017 90.5647 331.217 93.1921C261.617 98.4462 153.684 103.7 0.342336 103.7V103.044C153.667 103.044 261.567 97.7902 331.134 92.538C365.917 89.9119 391.117 87.2859 407.626 85.3165C415.876 84.3321 421.951 83.5119 425.967 82.938C427.967 82.651 429.459 82.4258 430.451 82.2721C430.942 82.1953 431.309 82.1362 431.559 82.0968C431.676 82.0771 431.767 82.062 431.834 82.0521L431.901 82.0403L431.917 82.037C431.926 82.037 431.926 82.037 432.009 82.3581ZM432.059 106.981C432.059 106.981 432.059 106.981 432.009 106.655C431.959 106.329 431.959 106.329 431.959 106.329L431.867 106.338C431.809 106.343 431.717 106.352 431.592 106.363C431.351 106.385 430.984 106.418 430.484 106.462C429.501 106.548 428.009 106.675 426.001 106.837C421.984 107.16 415.909 107.621 407.651 108.175C391.142 109.283 365.942 110.76 331.151 112.237C261.576 115.192 153.667 118.147 0.344014 118.147V118.804C153.684 118.804 261.609 115.848 331.201 112.893C365.992 111.416 391.209 109.937 407.726 108.829C415.984 108.275 422.067 107.813 426.084 107.489C428.092 107.328 429.584 107.201 430.576 107.114C431.076 107.071 431.442 107.038 431.692 107.015C431.817 107.004 431.909 106.996 431.967 106.99L432.059 106.981ZM432.009 130.295C432.051 130.623 432.042 130.623 432.042 130.623L431.951 130.629C431.892 130.633 431.801 130.639 431.676 130.647C431.434 130.664 431.059 130.687 430.567 130.719C429.576 130.781 428.084 130.873 426.076 130.99C422.051 131.223 415.967 131.557 407.717 131.957C391.201 132.758 365.992 133.825 331.192 134.892C261.601 137.026 153.684 139.16 0.344014 139.16V138.504C153.676 138.504 261.584 136.37 331.159 134.236C365.951 133.169 391.159 132.102 407.659 131.302C415.917 130.901 421.992 130.568 426.009 130.335C428.017 130.218 429.509 130.126 430.501 130.064C430.992 130.033 431.359 130.009 431.609 129.993L431.884 129.975L431.976 129.968C431.976 129.968 431.976 129.968 432.009 130.295ZM432.017 154.922C432.017 154.922 432.017 154.922 432.009 154.594C432.001 154.265 432.001 154.265 432.001 154.265L431.634 154.273C431.384 154.278 431.017 154.286 430.517 154.295C429.534 154.315 428.042 154.342 426.034 154.378C422.017 154.451 415.934 154.553 407.676 154.676C391.167 154.922 365.959 155.251 331.167 155.579C261.592 156.236 153.676 156.892 0.34315 156.892V157.549C153.676 157.549 261.592 156.892 331.184 156.236C365.976 155.907 391.184 155.579 407.692 155.333C415.951 155.21 422.034 155.107 426.051 155.035C428.059 154.999 429.551 154.971 430.542 154.952C431.034 154.942 431.409 154.935 431.651 154.929L432.017 154.922ZM432.009 178.234C432.009 178.234 432.009 178.234 432.009 177.906C432.009 177.578 432.009 177.578 432.009 177.578H0.339844V178.234H432.009ZM432.192 395.954C432.192 395.954 432.192 395.955 432.017 396.251C431.834 396.547 431.834 396.546 431.834 396.546L431.826 396.545L431.809 396.539L431.742 396.514C431.684 396.491 431.592 396.458 431.467 396.414C431.226 396.324 430.859 396.192 430.367 396.02C429.376 395.675 427.892 395.169 425.884 394.523C421.876 393.233 415.801 391.388 407.559 389.174C391.059 384.746 365.867 378.839 331.092 372.931C261.542 361.116 153.651 349.298 0.347321 349.298V348.641C153.709 348.641 261.651 360.464 331.267 372.289C366.076 378.202 391.301 384.116 407.826 388.553C416.092 390.771 422.176 392.62 426.201 393.916C428.217 394.563 429.709 395.072 430.701 395.42C431.201 395.593 431.576 395.727 431.817 395.817C431.942 395.862 432.034 395.897 432.101 395.92L432.167 395.946L432.184 395.953L432.192 395.954ZM432.017 367.357C432.142 367.044 432.142 367.044 432.142 367.044L432.134 367.042L432.117 367.038L432.051 367.021C431.984 367.005 431.892 366.983 431.767 366.952C431.526 366.893 431.151 366.804 430.651 366.688C429.659 366.457 428.167 366.117 426.151 365.686C422.134 364.823 416.042 363.59 407.784 362.111C391.259 359.154 366.042 355.213 331.242 351.271C261.634 343.389 153.701 335.508 0.348185 335.508V336.164C153.667 336.164 261.559 344.044 331.126 351.922C365.901 355.86 391.101 359.799 407.601 362.752C415.851 364.228 421.926 365.458 425.934 366.319C427.942 366.749 429.434 367.088 430.417 367.317C430.909 367.433 431.284 367.521 431.526 367.58C431.651 367.61 431.734 367.632 431.801 367.647L431.867 367.664L431.884 367.668V367.669C431.884 367.669 431.892 367.669 432.017 367.357ZM432.101 340.768C432.101 340.768 432.101 340.769 432.017 341.09C431.926 341.411 431.926 341.411 431.926 341.411L431.909 341.407L431.842 341.396C431.776 341.386 431.684 341.371 431.567 341.352C431.317 341.311 430.951 341.253 430.459 341.176C429.467 341.023 427.976 340.797 425.976 340.51C421.959 339.936 415.884 339.116 407.634 338.131C391.126 336.162 365.926 333.536 331.142 330.91C261.576 325.658 153.667 320.405 0.349813 320.405V319.748C153.692 319.748 261.626 325.001 331.226 330.256C366.017 332.884 391.234 335.511 407.759 337.482C416.017 338.467 422.101 339.289 426.117 339.864C428.134 340.152 429.626 340.378 430.617 340.532C431.117 340.609 431.484 340.668 431.734 340.708C431.859 340.728 431.951 340.743 432.009 340.753L432.076 340.765L432.101 340.768ZM432.017 316.793C432.067 316.467 432.067 316.467 432.059 316.467L431.967 316.459C431.909 316.453 431.817 316.444 431.692 316.433C431.451 316.411 431.076 316.377 430.584 316.334C429.592 316.247 428.092 316.121 426.084 315.958C422.067 315.635 415.984 315.173 407.726 314.619C391.209 313.511 366.001 312.033 331.201 310.555C261.609 307.599 153.684 304.644 0.347321 304.644V305.301C153.676 305.301 261.584 308.256 331.159 311.211C365.942 312.688 391.151 314.166 407.659 315.273C415.909 315.827 421.984 316.289 426.001 316.612C428.009 316.773 429.501 316.9 430.492 316.987C430.984 317.03 431.351 317.063 431.601 317.085C431.717 317.096 431.809 317.105 431.876 317.111L431.967 317.119C431.967 317.119 431.967 317.119 432.017 316.793ZM432.051 292.825C432.051 292.825 432.051 292.825 432.017 293.152C431.976 293.48 431.976 293.479 431.976 293.479L431.884 293.474C431.826 293.47 431.734 293.464 431.609 293.455C431.367 293.439 431.001 293.415 430.501 293.384C429.517 293.322 428.026 293.23 426.017 293.113C422.001 292.88 415.917 292.546 407.667 292.146C391.159 291.347 365.951 290.279 331.167 289.212C261.584 287.078 153.676 284.944 0.348185 284.944V284.287C153.684 284.287 261.609 286.421 331.201 288.556C365.992 289.623 391.201 290.69 407.717 291.491C415.976 291.892 422.059 292.225 426.076 292.458C428.084 292.575 429.576 292.667 430.567 292.73C431.067 292.761 431.434 292.785 431.684 292.801C431.801 292.809 431.901 292.815 431.959 292.819L432.051 292.825ZM432.017 268.856C432.026 268.527 432.026 268.527 432.026 268.527L431.659 268.52C431.417 268.515 431.042 268.507 430.551 268.498C429.559 268.478 428.067 268.451 426.059 268.415C422.042 268.342 415.959 268.24 407.701 268.117C391.192 267.871 365.984 267.542 331.192 267.214C261.601 266.557 153.684 265.901 0.349813 265.901V266.557C153.684 266.557 261.601 267.214 331.176 267.871C365.967 268.199 391.176 268.527 407.684 268.773C415.942 268.897 422.017 268.999 426.034 269.071C428.042 269.107 429.534 269.135 430.526 269.154C431.026 269.164 431.392 269.171 431.634 269.176L432.001 269.184C432.009 269.184 432.009 269.184 432.017 268.856Z" fill="url(#paint0_linear_129_5812)"/>
<defs>
<linearGradient id="paint0_linear_129_5812" x1="8.25104" y1="125.739" x2="415.191" y2="264.869" gradientUnits="userSpaceOnUse">
<stop offset="0.1875" stop-color="#F2F5FF"/>
<stop offset="0.390625" stop-color="#F8522E"/>
<stop offset="0.46875" stop-color="#AA3FFF"/>
<stop offset="0.651042" stop-color="#E54190"/>
<stop offset="0.802083" stop-color="#5B21FF"/>
<stop offset="1" stop-color="#0742FE"/>
</linearGradient>
</defs>
</svg>
