<svg width="432" height="397" viewBox="0 0 432 397" fill="none" xmlns="http://www.w3.org/2000/svg">
<path fill-rule="evenodd" clip-rule="evenodd" d="M0.200142 1.27315C0.00406372 1.56288 0.00585996 1.56361 0.00585996 1.56361L0.0105212 1.56558L0.0284439 1.57306L0.0987666 1.60215C0.160999 1.62783 0.253967 1.66592 0.377888 1.71602C0.62573 1.81616 0.997382 1.96444 1.49457 2.15764C2.48896 2.54397 3.98549 3.10976 5.99801 3.82949C10.023 5.26887 16.112 7.32369 24.3755 9.78874C40.9026 14.7189 66.1279 21.2897 100.936 27.8597C170.554 40.9998 278.503 54.1357 431.867 54.1357V53.479C278.564 53.479 170.68 40.3484 101.13 27.2212C66.3558 20.6575 41.1643 14.0947 24.6705 9.17462C16.4237 6.71455 10.3512 4.66511 6.34238 3.23151C4.33797 2.51468 2.84948 1.9519 1.86307 1.56866C1.36987 1.37704 1.00217 1.23034 0.758277 1.13171C0.636327 1.08239 0.545326 1.04516 0.485056 1.02027L0.417671 0.992424L0.401214 0.985528L0.397286 0.983887C0.397286 0.983887 0.396221 0.983426 0.200142 1.27315ZM0.200495 27.5402C0.0201901 27.8363 0.0219722 27.8369 0.0219722 27.8369L0.026618 27.8387L0.0445109 27.8454L0.114772 27.8716C0.176964 27.8947 0.26989 27.9289 0.393767 27.974C0.641523 28.0641 1.01308 28.1976 1.51018 28.3713C2.50437 28.719 4.00071 29.2282 6.01301 29.8759C10.0376 31.1712 16.126 33.0203 24.389 35.2387C40.915 39.6755 66.1389 45.589 100.946 51.5018C170.56 63.3273 278.507 71.8661 431.867 71.8661V71.2095C278.561 71.2095 170.674 62.6746 101.122 50.8595C66.3454 44.952 41.1526 39.0456 24.6578 34.6171C16.4104 32.4029 10.3374 30.5583 6.32809 29.2679C4.32346 28.6227 2.83476 28.1161 1.84816 27.7711C1.35486 27.5986 0.98709 27.4666 0.743102 27.3778C0.62111 27.3334 0.530066 27.2998 0.469754 27.2774L0.402309 27.2523L0.385822 27.2461L0.381879 27.2447C0.381879 27.2447 0.380799 27.2443 0.200495 27.5402ZM0.197037 200.247C0.197037 200.247 0.195606 200.247 0.195606 199.918C0.195606 199.59 0.197037 199.59 0.197037 199.59H431.862V200.247H0.197037ZM0.195606 222.902C0.195606 223.231 0.197037 223.231 0.197037 223.231H431.862V222.574H0.197037C0.197037 222.574 0.195606 222.574 0.195606 222.902ZM0.195606 244.573C0.195606 244.901 0.197037 244.901 0.197037 244.901H431.862V244.245H0.197037C0.197037 244.245 0.195606 244.245 0.195606 244.573ZM0.0742455 56.7474C0.0742455 56.7474 0.0725386 56.7474 0.199528 56.4348C0.326518 56.1215 0.327673 56.1222 0.327673 56.1222L0.331692 56.1229L0.34833 56.1274L0.416082 56.1439C0.476598 56.159 0.567849 56.1813 0.690051 56.2108C0.934457 56.2706 1.30266 56.3586 1.7964 56.4735C2.78387 56.704 4.27348 57.0415 6.27905 57.4723C10.2902 58.3326 16.3652 59.5632 24.6147 61.0394C41.1138 63.9925 66.3111 67.9313 101.092 71.8701C170.654 79.7476 278.551 87.6272 431.866 87.6272V88.2838C278.514 88.2838 170.579 80.4024 100.974 72.5202C66.1713 68.5788 40.9519 64.6367 24.4301 61.6797C16.1693 60.2015 10.0828 58.9689 6.06012 58.106C4.04876 57.6739 2.55333 57.3351 1.56001 57.1033C1.06336 56.9877 0.692223 56.899 0.444887 56.8386C0.321218 56.8084 0.228499 56.7861 0.166513 56.7703L0.0965574 56.7533L0.0788158 56.7487L0.0742455 56.7474ZM0.198636 82.7014C0.111702 83.0225 0.113332 83.0225 0.113332 83.0225L0.135414 83.0265L0.205062 83.0376C0.266842 83.0481 0.359354 83.0632 0.482816 83.0829C0.729738 83.123 1.10046 83.1821 1.5967 83.2596C2.58918 83.4139 4.08376 83.6398 6.09426 83.9274C10.1153 84.5027 16.2 85.3235 24.4592 86.3092C40.9775 88.2806 66.1934 90.908 100.992 93.5353C170.59 98.7895 278.52 104.044 431.865 104.044V103.387C278.544 103.387 170.64 98.1334 101.072 92.8813C66.2873 90.2552 41.0865 87.6291 24.584 85.6598C16.3326 84.6754 10.256 83.8552 6.24311 83.2812C4.23669 82.9943 2.74624 82.769 1.75793 82.6154C1.26377 82.5385 0.895157 82.4794 0.650336 82.44C0.527927 82.4203 0.436469 82.4052 0.375747 82.3954L0.307687 82.3836L0.2868 82.3803C0.2868 82.3803 0.285568 82.3803 0.198636 82.7014ZM0.149187 107.324C0.149187 107.324 0.147638 107.324 0.197282 106.999C0.246926 106.672 0.24824 106.672 0.24824 106.672L0.33776 106.681C0.398701 106.687 0.490376 106.695 0.613002 106.706C0.858257 106.728 1.22731 106.762 1.7219 106.805C2.71107 106.891 4.20238 107.018 6.20966 107.18C10.2242 107.503 16.3026 107.964 24.5555 108.518C41.0615 109.626 66.2655 111.104 101.053 112.58C170.628 115.535 278.538 118.491 431.864 118.491V119.147C278.524 119.147 170.599 116.192 101.008 113.236C66.2125 111.759 40.9998 110.281 24.4849 109.172C16.2274 108.618 10.1443 108.156 6.12501 107.833C4.11536 107.671 2.62164 107.544 1.63002 107.458C1.13421 107.414 0.763931 107.381 0.517443 107.358C0.394199 107.347 0.301904 107.339 0.240342 107.333L0.149187 107.324ZM0.1967 130.639C0.160724 130.966 0.162241 130.966 0.162241 130.966L0.253175 130.972C0.314653 130.976 0.406864 130.983 0.530024 130.991C0.776344 131.007 1.14646 131.031 1.64211 131.062C2.63339 131.124 4.12678 131.216 6.13611 131.333C10.1548 131.566 16.2372 131.9 24.494 132.301C41.0077 133.101 66.2192 134.168 101.014 135.235C170.603 137.37 278.525 139.504 431.864 139.504V138.847C278.535 138.847 170.624 136.713 101.046 134.579C66.2575 133.512 41.0524 132.445 24.5452 131.645C16.2916 131.245 10.2126 130.912 6.1974 130.678C4.1898 130.562 2.69816 130.47 1.70866 130.407C1.2139 130.376 0.844673 130.352 0.599257 130.336L0.323763 130.318L0.234022 130.311C0.234022 130.311 0.232677 130.311 0.1967 130.639ZM0.18845 155.265C0.18845 155.265 0.186992 155.265 0.198099 154.937C0.209207 154.609 0.210611 154.609 0.210611 154.609L0.576724 154.617C0.822454 154.621 1.19198 154.629 1.68705 154.638C2.67717 154.658 4.16941 154.686 6.17761 154.722C10.194 154.794 16.2742 154.896 24.5289 155.019C41.0383 155.265 66.2457 155.594 101.036 155.922C170.618 156.579 278.533 157.235 431.864 157.235V157.892C278.53 157.892 170.612 157.235 101.026 156.579C66.2339 156.25 41.0245 155.922 24.5131 155.676C16.2575 155.553 10.1761 155.45 6.1587 155.378C4.14997 155.342 2.65718 155.314 1.66651 155.295C1.17117 155.285 0.801365 155.278 0.555355 155.273L0.18845 155.265ZM0.202439 178.578C0.202439 178.578 0.201008 178.578 0.201008 178.249C0.201008 177.921 0.202439 177.921 0.202439 177.921H431.868V178.578H0.202439ZM0.0167653 396.297C0.0167653 396.297 0.0149833 396.298 0.195288 396.594C0.375592 396.89 0.376672 396.89 0.376672 396.89L0.380616 396.888L0.397102 396.882L0.464547 396.857C0.524859 396.834 0.615903 396.801 0.737895 396.757C0.981882 396.668 1.34966 396.536 1.84296 396.364C2.82956 396.018 4.31826 395.512 6.32288 394.866C10.3321 393.576 16.4051 391.731 24.6525 389.518C41.1475 385.089 66.3402 379.182 101.116 373.275C170.669 361.46 278.556 349.641 431.862 349.641V348.985C278.501 348.985 170.555 360.807 100.941 372.632C66.1337 378.545 40.9098 384.459 24.3839 388.896C16.1209 391.114 10.0324 392.963 6.0078 394.259C3.9955 394.906 2.49917 395.415 1.50497 395.763C1.00788 395.937 0.636317 396.071 0.388561 396.161C0.264683 396.205 0.171757 396.24 0.109566 396.263L0.0393041 396.289L0.0214112 396.296L0.0167653 396.297ZM0.194127 367.7C0.0671366 367.387 0.0688435 367.387 0.0688435 367.387L0.0734138 367.386L0.0911549 367.382L0.161112 367.364C0.223097 367.349 0.315817 367.326 0.439485 367.296C0.686822 367.236 1.05796 367.147 1.55462 367.031C2.54793 366.8 4.04336 366.46 6.05472 366.029C10.0775 365.166 16.1639 363.933 24.4248 362.454C40.9465 359.497 66.1659 355.556 100.968 351.615C170.573 343.732 278.509 335.851 431.861 335.851V336.508C278.545 336.508 170.649 344.387 101.087 352.265C66.3057 356.204 41.1085 360.142 24.6093 363.095C16.3598 364.572 10.2848 365.802 6.27365 366.663C4.26807 367.093 2.77847 367.431 1.791 367.661C1.29726 367.776 0.929048 367.864 0.684649 367.923C0.562447 367.953 0.471196 367.975 0.410679 367.99L0.342928 368.007L0.32629 368.011L0.322272 368.013C0.322272 368.013 0.321117 368.013 0.194127 367.7ZM0.107957 341.112C0.107957 341.112 0.106327 341.112 0.193259 341.433C0.280192 341.755 0.281423 341.754 0.281423 341.754L0.302311 341.751L0.370371 341.739C0.431093 341.73 0.522551 341.715 0.644959 341.695C0.889773 341.655 1.2584 341.596 1.75256 341.519C2.74086 341.366 4.23132 341.141 6.23773 340.854C10.2505 340.28 16.3273 339.459 24.5785 338.474C41.0811 336.506 66.2819 333.88 101.066 331.254C170.635 326.001 278.539 320.748 431.86 320.748V320.091C278.514 320.091 170.584 325.345 100.987 330.599C66.188 333.227 40.972 335.854 24.4538 337.825C16.1946 338.811 10.1099 339.632 6.08889 340.207C4.07838 340.495 2.58381 340.721 1.59132 340.875C1.09508 340.952 0.724362 341.011 0.477439 341.051C0.353978 341.072 0.261466 341.087 0.199685 341.097L0.130037 341.108L0.107957 341.112ZM0.195161 317.136C0.145517 316.811 0.147066 316.81 0.147066 316.81L0.238222 316.802C0.299783 316.796 0.392078 316.788 0.515322 316.776C0.761809 316.754 1.13209 316.721 1.6279 316.677C2.61951 316.591 4.11323 316.464 6.12289 316.302C10.1422 315.979 16.2252 315.516 24.4827 314.962C40.9976 313.854 66.2103 312.376 101.006 310.898C170.598 307.943 278.522 304.988 431.862 304.988V305.644C278.535 305.644 170.626 308.599 101.051 311.554C66.2634 313.031 41.0594 314.509 24.5535 315.617C16.3005 316.17 10.2221 316.632 6.20754 316.955C4.20026 317.117 2.70896 317.243 1.71978 317.33C1.22519 317.373 0.856132 317.406 0.610881 317.428C0.488255 317.44 0.396579 317.448 0.335639 317.454L0.246119 317.462C0.246119 317.462 0.244805 317.463 0.195161 317.136ZM0.16012 293.169C0.16012 293.169 0.158603 293.169 0.194579 293.496C0.230556 293.823 0.231901 293.823 0.231901 293.823L0.321642 293.817C0.382667 293.813 0.474427 293.807 0.597136 293.798C0.842557 293.783 1.21178 293.758 1.70653 293.727C2.69604 293.665 4.18767 293.573 6.19527 293.456C10.2105 293.223 16.2895 292.89 24.543 292.49C41.0502 291.69 66.2554 290.623 101.044 289.556C170.621 287.421 278.533 285.287 431.861 285.287V284.63C278.523 284.63 170.601 286.765 101.012 288.9C66.217 289.967 41.0056 291.034 24.4919 291.834C16.235 292.235 10.1526 292.568 6.13399 292.802C4.12466 292.918 2.63127 293.01 1.63998 293.073C1.14434 293.104 0.774223 293.128 0.527903 293.144C0.404743 293.152 0.312532 293.158 0.251054 293.163L0.16012 293.169ZM0.192723 269.199C0.181616 268.871 0.183073 268.871 0.183073 268.871L0.549979 268.863C0.795988 268.858 1.1658 268.85 1.66113 268.841C2.65181 268.822 4.14459 268.794 6.15332 268.758C10.1708 268.686 16.252 268.583 24.5078 268.46C41.0192 268.214 66.2285 267.886 101.021 267.557C170.606 266.901 278.524 266.244 431.859 266.244V266.901C278.528 266.901 170.613 267.557 101.031 268.214C66.2403 268.542 41.033 268.87 24.5235 269.116C16.2688 269.24 10.1886 269.342 6.17222 269.414C4.16403 269.45 2.67179 269.478 1.68167 269.497C1.18661 269.507 0.817078 269.514 0.571348 269.52L0.205235 269.527C0.205235 269.527 0.20383 269.527 0.192723 269.199Z" fill="url(#paint0_linear_129_5813)"/>
<defs>
<linearGradient id="paint0_linear_129_5813" x1="7.91707" y1="126.082" x2="414.857" y2="265.213" gradientUnits="userSpaceOnUse">
<stop stop-color="#0742FE"/>
<stop offset="0.119641" stop-color="#5B21FF"/>
<stop offset="0.288809" stop-color="#AA3FFF"/>
<stop offset="0.453092" stop-color="#E54190"/>
<stop offset="0.639675" stop-color="#F8522E"/>
<stop offset="0.826875" stop-color="#ffffff"/>
</linearGradient>
</defs>
</svg>
