<svg width="30" height="29" viewBox="0 0 30 29" fill="none" xmlns="http://www.w3.org/2000/svg">
<path d="M4.65975 16.533C4.44375 16.7895 4.3425 17.118 4.3515 17.5185C4.3605 17.919 4.491 18.2475 4.73625 18.504C4.9815 18.7605 5.31 18.8888 5.72175 18.8888H8.67375C8.57025 19.197 8.5095 19.494 8.48925 19.7798C8.469 20.0678 8.469 20.3647 8.48925 20.6707C8.48925 21.861 8.62875 22.9837 8.9055 24.039C9.18225 25.0965 9.567 26.0752 10.0597 26.9775H3.9375C2.8305 26.937 1.908 26.5478 1.17 25.8075C0.432 25.0673 0.04275 24.147 0 23.04V3.9375C0.0405 2.8305 0.42975 1.9035 1.17 1.15425C1.908 0.405 2.8305 0.02025 3.9375 0H21.0712C22.1782 0.02025 23.1053 0.405 23.8545 1.15425C24.6038 1.9035 24.9885 2.8305 25.0087 3.9375V9.045C24.4147 8.757 23.7533 8.55225 23.0243 8.43075C22.2952 8.307 21.5842 8.2575 20.8867 8.27775H20.6707C20.5673 8.073 20.43 7.92 20.2545 7.8165C20.079 7.713 19.89 7.6635 19.6852 7.6635H5.32125C5.013 7.6635 4.74075 7.767 4.50675 7.97175C4.2705 8.1765 4.1535 8.4735 4.1535 8.86275C4.1535 9.252 4.2705 9.55575 4.50675 9.7695C4.743 9.9855 5.01525 10.143 5.32125 10.2465H14.3955C13.2052 10.9237 12.1748 11.754 11.304 12.7373C10.431 13.7228 9.7515 14.859 9.25875 16.1528H5.72175C5.229 16.1483 4.87575 16.2765 4.65975 16.533ZM26.7165 14.733C28.2847 16.2292 29.1015 18.1372 29.1622 20.4548C29.1015 22.7925 28.2847 24.741 26.7165 26.3003C25.1482 27.8595 23.2043 28.6695 20.8867 28.7302C18.549 28.6695 16.6005 27.8392 15.0412 26.2395C13.482 24.6397 12.672 22.7115 12.6112 20.457C12.672 18.243 13.482 16.3598 15.0412 14.8118C16.6005 13.2638 18.549 12.4583 20.8867 12.3975C23.2043 12.4583 25.1482 13.2368 26.7165 14.733ZM26.0258 22.8555C26.2508 22.6305 26.3633 22.3628 26.3633 22.0568C26.3633 21.7508 26.2508 21.4785 26.0258 21.2423C25.8008 21.006 25.533 20.8778 25.227 20.8575H21.0735V16.5173C21.0735 16.209 20.9542 15.9435 20.7202 15.7185C20.484 15.4935 20.2118 15.381 19.9058 15.381C19.5998 15.381 19.3252 15.4935 19.0912 15.7185C18.855 15.9435 18.7267 16.2112 18.7065 16.5173V22.0545C18.7267 22.3628 18.855 22.6282 19.0912 22.8532C19.3275 23.0782 19.5998 23.202 19.9058 23.2222H25.227C25.533 23.2043 25.7985 23.0805 26.0258 22.8555Z" fill="#008435"/>
</svg>
