<svg width="26" height="26" viewBox="0 0 26 26" fill="none" xmlns="http://www.w3.org/2000/svg">
<path d="M10.9791 26C10.524 25.7397 10.3777 25.3527 10.3919 24.83C10.4236 23.6523 10.4017 22.4728 10.4017 21.2369C10.2568 21.2369 10.1302 21.2369 10.0038 21.2369C8.58376 21.2369 7.16332 21.238 5.74325 21.2366C4.37741 21.2351 3.46516 20.317 3.46479 18.9424C3.4637 15.8252 3.46443 12.708 3.46443 9.59078C3.46443 9.44735 3.46443 9.30356 3.46443 9.12591C3.34685 9.11681 3.24419 9.10261 3.14154 9.10225C2.39528 9.10007 1.64902 9.10553 0.903125 9.09934C0.350166 9.09497 0.00506694 8.74914 0.00397485 8.19399C0.000698597 6.15977 -0.00366974 4.12555 0.00543097 2.09169C0.0101633 0.973745 0.965738 0.00687196 2.08003 0.00541583C7.05084 -0.00150081 12.0213 -0.00222887 16.9921 0.00577986C18.1559 0.00760003 19.0689 0.997407 19.0729 2.23985C19.0802 4.5147 19.0751 6.78918 19.0751 9.06403C19.0751 9.20491 19.0751 9.34615 19.0751 9.52708C19.2542 9.52708 19.395 9.52708 19.5359 9.52708C20.9079 9.52708 22.28 9.52598 23.652 9.52744C24.8416 9.52853 25.5548 10.0451 25.9417 11.1809C25.9527 11.2129 25.9803 11.2391 26.0003 11.2682C26.0003 15.9865 26.0003 20.7047 26.0003 25.423C25.8078 25.6155 25.6152 25.8081 25.4226 26.0007C20.608 26 15.7937 26 10.9791 26ZM11.2758 25.1066C15.9087 25.1066 20.497 25.1066 25.1259 25.1066C25.1259 24.9475 25.1259 24.8067 25.1259 24.6661C25.1259 20.4321 25.1259 16.198 25.1259 11.9636C25.1259 10.8846 24.6443 10.4011 23.5635 10.4011C19.4617 10.4004 15.3601 10.4008 11.2583 10.4018C11.1454 10.4018 11.0322 10.4128 10.8538 10.4222C11.2998 11.0294 11.2787 11.6792 11.2779 12.3305C11.2736 16.4324 11.2758 20.534 11.2758 24.6359C11.2758 24.779 11.2758 24.9224 11.2758 25.1066ZM18.1846 9.52671C18.1916 9.38183 18.2003 9.28718 18.2003 9.19253C18.201 6.90676 18.2032 4.62136 18.1996 2.33559C18.1981 1.38583 17.6732 0.875456 16.7158 0.875456C12.6139 0.875456 8.51168 0.875456 4.40981 0.875092C4.27112 0.875092 4.13206 0.875092 3.91255 0.875092C4.44039 1.59624 4.33701 2.36508 4.33737 3.11572C4.33919 8.36071 4.33591 13.6053 4.34538 18.8503C4.34574 19.1299 4.39707 19.4332 4.51465 19.6832C4.75819 20.2024 5.36975 20.4565 5.91179 20.3258C6.53938 20.1743 6.92488 19.6847 6.92598 19.0105C6.92962 16.6407 6.92634 14.2708 6.9278 11.9009C6.92852 10.4157 7.82331 9.52635 9.31255 9.52635C12.1276 9.52635 14.9422 9.52635 17.7573 9.52635C17.888 9.52671 18.0183 9.52671 18.1846 9.52671ZM10.3842 20.3451C10.3908 20.2235 10.401 20.1183 10.401 20.0127C10.4017 17.3047 10.4021 14.5966 10.4006 11.8889C10.4006 11.7568 10.3984 11.6228 10.3755 11.4936C10.2248 10.6538 9.35732 10.1765 8.59104 10.5202C8.01842 10.7768 7.79892 11.2522 7.80001 11.8602C7.80365 13.918 7.80547 15.9763 7.79928 18.0342C7.7971 18.8194 7.92523 19.6276 7.39266 20.3451C8.42213 20.3451 9.39227 20.3451 10.3842 20.3451ZM3.46261 8.21037C3.46261 6.14848 3.47571 4.12919 3.45569 2.10989C3.44841 1.3902 2.82083 0.848517 2.12007 0.876548C1.4124 0.904943 0.880555 1.46483 0.878371 2.20745C0.873275 4.11936 0.876187 6.03126 0.878007 7.94353C0.878007 8.03381 0.898393 8.12409 0.908585 8.21073C1.76733 8.21037 2.59331 8.21037 3.46261 8.21037Z" fill="#1B4AF0"/>
<path d="M23.8358 21.7926C23.8231 22.1322 23.644 22.5119 23.2552 22.7361C23.0167 22.8737 22.9672 23.0314 22.9625 23.2811C22.9592 23.442 22.8824 23.6411 22.7677 23.7467C22.6833 23.8242 22.4496 23.8352 22.3462 23.7718C22.2279 23.6994 22.1129 23.5112 22.1147 23.3747C22.1187 23.0609 22.083 22.8213 21.7459 22.6914C21.6251 22.6448 21.529 22.5032 21.4503 22.3856C21.2978 22.1577 21.2982 21.9236 21.5344 21.7503C21.7557 21.588 21.96 21.6524 22.1409 21.8457C22.2206 21.9309 22.3094 22.0328 22.4135 22.066C22.6789 22.15 22.8682 22.0179 22.9381 21.7667C23.012 21.5002 22.8631 21.3262 22.6134 21.2527C22.4656 21.209 22.3018 21.2188 22.1547 21.1744C21.6323 21.0161 21.3244 20.6495 21.2457 20.1187C21.1664 19.5843 21.3615 19.1348 21.8267 18.857C22.0477 18.7252 22.1139 18.5854 22.1059 18.3455C22.0928 17.9564 22.2486 17.766 22.5337 17.7656C22.8162 17.7656 22.9792 17.9633 22.9687 18.3455C22.9621 18.5832 23.0095 18.7398 23.2439 18.8625C23.4135 18.9513 23.5923 19.1231 23.6491 19.2964C23.7 19.4522 23.6458 19.7081 23.538 19.8341C23.38 20.0179 23.1452 19.9677 22.9636 19.7947C22.9294 19.762 22.9101 19.6983 22.8726 19.6863C22.704 19.6342 22.5056 19.5246 22.368 19.5741C22.2486 19.6171 22.0994 19.8807 22.1369 19.9848C22.1922 20.1391 22.387 20.2629 22.5479 20.3535C22.6658 20.4202 22.8311 20.3961 22.9654 20.4413C23.4947 20.6193 23.8416 21.1202 23.8358 21.7926Z" fill="#1B4AF0"/>
<path d="M19.2498 13.4411C17.9622 13.4411 16.6747 13.4414 15.3871 13.4407C15.279 13.4407 15.1363 13.4745 15.07 13.4196C14.9353 13.3078 14.7562 13.1465 14.7559 13.0049C14.7555 12.8633 14.9302 12.6955 15.0671 12.5888C15.1439 12.5288 15.2994 12.5663 15.4195 12.5659C17.9946 12.5652 20.5698 12.5656 23.1449 12.5656C23.217 12.5656 23.2894 12.5645 23.3615 12.5663C23.6458 12.5732 23.8293 12.713 23.8304 13.0013C23.8315 13.2893 23.6498 13.436 23.3651 13.4389C22.8959 13.4436 22.4267 13.4407 21.9574 13.4407C21.055 13.4407 20.1526 13.4407 19.2498 13.4411Z" fill="#1B4AF0"/>
<path d="M19.2475 15.6018C20.5831 15.6018 21.9187 15.6011 23.2543 15.6022C23.6406 15.6025 23.8346 15.7496 23.8364 16.0346C23.8382 16.3138 23.6336 16.4744 23.2551 16.4744C20.6078 16.4758 17.961 16.4758 15.3138 16.474C14.9374 16.4737 14.7332 16.3142 14.7324 16.0354C14.7317 15.7529 14.9297 15.6025 15.3134 15.6022C16.6246 15.6011 17.9359 15.6018 19.2475 15.6018Z" fill="#1B4AF0"/>
<path d="M16.4667 18.6265C17.5857 18.6265 18.7043 18.6286 19.8234 18.625C20.0942 18.6243 20.3017 18.708 20.3625 18.9934C20.4226 19.2755 20.2056 19.4954 19.8609 19.4972C19.0189 19.5023 18.1765 19.4987 17.3345 19.4987C15.9268 19.4987 14.5191 19.4965 13.1118 19.5012C12.8573 19.502 12.6549 19.4386 12.5803 19.1732C12.4947 18.87 12.7252 18.629 13.1107 18.6279C14.229 18.6235 15.3476 18.6261 16.4667 18.6265Z" fill="#1B4AF0"/>
<path d="M16.5043 21.6659C17.6113 21.6659 18.7183 21.6684 19.8253 21.6641C20.1158 21.663 20.3262 21.7602 20.3685 22.0678C20.4052 22.3368 20.1886 22.5359 19.8603 22.5385C19.1985 22.5439 18.5367 22.5399 17.8749 22.5399C16.2986 22.5399 14.7224 22.5378 13.1462 22.5425C12.8662 22.5432 12.6372 22.4853 12.5743 22.1737C12.5142 21.877 12.7344 21.6684 13.1112 21.6673C14.2422 21.6637 15.3733 21.6659 16.5043 21.6659Z" fill="#1B4AF0"/>
<path d="M13.1988 13.433C12.9313 13.456 12.6583 13.4268 12.5967 13.1207C12.568 12.9783 12.6706 12.6828 12.7529 12.6675C13.055 12.6114 13.3794 12.611 13.6819 12.6653C13.7634 12.6798 13.8676 12.9773 13.8381 13.1189C13.7689 13.4483 13.4755 13.452 13.1988 13.433Z" fill="#1B4AF0"/>
<path d="M13.1854 16.4933C13.0718 16.4729 12.8993 16.493 12.8254 16.4169C12.707 16.2953 12.5662 16.0954 12.5895 15.9542C12.6605 15.5235 13.0347 15.616 13.3394 15.6025C13.6004 15.5909 13.8301 15.6826 13.8428 15.9447C13.8505 16.1056 13.711 16.3018 13.5847 16.4307C13.513 16.5039 13.3354 16.474 13.1854 16.4933Z" fill="#1B4AF0"/>
<path d="M12.3144 4.33855C11.0152 4.33855 9.7156 4.34183 8.41638 4.33455C8.26676 4.33382 8.07529 4.32217 7.97991 4.23298C7.87725 4.13687 7.78625 3.90972 7.83284 3.80196C7.89509 3.65854 8.08402 3.50601 8.2391 3.48052C8.54379 3.43029 8.86231 3.46451 9.17501 3.46451C11.5092 3.46451 13.8433 3.46451 16.1771 3.46451C16.2612 3.46451 16.3456 3.46305 16.4297 3.46523C16.7151 3.47215 16.8935 3.61303 16.8946 3.90244C16.8961 4.19548 16.7108 4.33455 16.4286 4.33709C15.8873 4.34183 15.346 4.33819 14.8044 4.33819C13.9747 4.33855 13.1444 4.33855 12.3144 4.33855Z" fill="#1B4AF0"/>
<path d="M12.3144 7.37551C11.0032 7.37551 9.69159 7.37296 8.38036 7.3777C8.11717 7.37842 7.89547 7.32673 7.81575 7.04206C7.73239 6.74355 7.94753 6.5062 8.30865 6.50438C9.27114 6.50001 10.2336 6.50256 11.1961 6.50256C12.9045 6.50256 14.6129 6.50474 16.3213 6.50001C16.5681 6.49928 16.785 6.53459 16.8801 6.79415C16.9944 7.10576 16.7577 7.3726 16.3569 7.37406C15.1418 7.37879 13.9267 7.37588 12.7116 7.37588C12.5794 7.37551 12.4469 7.37551 12.3144 7.37551Z" fill="#1B4AF0"/>
<path d="M6.27147 4.4131C6.06215 4.31409 5.84956 4.26931 5.72288 4.14044C5.54633 3.96024 5.58928 3.6439 5.79423 3.58675C6.1022 3.5012 6.47059 3.50229 6.77783 3.59039C6.98897 3.65082 7.02028 3.97117 6.84409 4.14335C6.70758 4.27732 6.48115 4.31991 6.27147 4.4131Z" fill="#1B4AF0"/>
<path d="M6.34357 6.50405C6.61914 6.48293 6.88342 6.53462 6.93257 6.89684C6.9737 7.20044 6.74436 7.37518 6.32682 7.37773C5.84084 7.38064 5.61078 7.22447 5.63335 6.90667C5.65373 6.61617 5.84667 6.50259 6.34357 6.50405Z" fill="#1B4AF0"/>
</svg>
