<svg width="30" height="34" viewBox="0 0 30 34" fill="none" xmlns="http://www.w3.org/2000/svg">
<path fill-rule="evenodd" clip-rule="evenodd" d="M22.3321 16.9439H26.6038V16.1167C26.3595 15.2117 25.9706 14.5983 25.4668 14.2251C24.9631 13.8527 24.31 13.6933 23.5434 13.6987L6.02389 13.7026C5.59248 13.7026 5.24336 13.3528 5.24336 12.9219C5.24336 12.4903 5.59248 12.1411 6.02389 12.1411L23.5228 12.1431C24.6239 12.1325 25.5956 12.3834 26.3934 12.975C26.465 13.0281 26.5354 13.0839 26.6038 13.1423V12.6729C26.6038 11.9439 26.3031 11.2773 25.8192 10.7933C25.3394 10.3093 24.6743 10.0099 23.9416 10.0099H23.3781L23.3058 10.0066L23.0303 11.0397H21.1374L22.2604 6.82576C21.3166 6.57347 20.7538 5.59751 21.0066 4.65341L14.7604 2.97967C14.5075 3.9231 13.5325 4.48743 12.59 4.23448L10.7562 11.0397H8.8042L11.7743 0L25.0288 3.55264L23.7219 8.44772H23.9416C25.0998 8.44772 26.1558 8.92508 26.9217 9.69058C27.6889 10.4547 28.1648 11.513 28.1648 12.6729V16.9877C28.6155 17.0773 29.0184 17.3004 29.331 17.6131C29.7431 18.0254 30 18.5964 30 19.2251V24.3605C30 25.0158 29.7319 25.612 29.3018 26.0416C28.9945 26.349 28.6029 26.5741 28.1648 26.677V29.7748C28.1648 30.934 27.6883 31.9916 26.9223 32.7578L26.8732 32.803C26.11 33.5419 25.0739 34 23.9416 34H4.22323C3.06372 34 2.00642 33.524 1.24049 32.7585C0.475885 31.9936 0 30.9373 0 29.7748V12.6729C0 11.5097 0.475221 10.4534 1.23982 9.68858C2.00442 8.92375 3.06106 8.44772 4.22323 8.44772H6.68695L6.69757 8.44838L8.65885 1.16186L10.5299 1.66312L7.95929 11.0397H6L6.27743 10.0099H4.22323C3.49248 10.0099 2.82677 10.31 2.34358 10.7927C1.86106 11.2754 1.56106 11.9419 1.56106 12.6729V29.7748C1.56106 30.5058 1.86173 31.171 2.34491 31.6537C2.8281 32.1377 3.49447 32.4385 4.22323 32.4385H23.9416C24.6538 32.4385 25.3049 32.153 25.7827 31.6916L25.8186 31.653C26.3024 31.1697 26.6038 30.5031 26.6038 29.7748V26.74H22.3321C21.0126 26.74 19.8126 26.1996 18.9458 25.3325L18.8642 25.2429C18.0438 24.3798 17.5381 23.2166 17.5381 21.9445V21.7387C17.5381 20.4248 18.0777 19.2271 18.9458 18.3567L18.9544 18.3481C19.8239 17.4817 21.0199 16.9439 22.3321 16.9439ZM15.9796 10.7655C17.1206 11.0709 18.2954 10.3937 18.6007 9.25172C18.9066 8.11045 18.2283 6.93531 17.0874 6.6299C15.9458 6.3245 14.771 7.0017 14.4657 8.14364C14.1604 9.28492 14.8387 10.4594 15.9796 10.7655ZM24.0465 20.5198L24.0504 20.5231C24.7759 21.2507 24.7739 22.4345 24.0491 23.1615L24.0458 23.1655C23.3184 23.8912 22.135 23.8892 21.4075 23.1642L21.4042 23.1608C20.6788 22.4332 20.6808 21.2494 21.4055 20.5218L21.4088 20.5184C22.1363 19.7928 23.3197 19.7941 24.0465 20.5198Z" fill="black"/>
</svg>
